mtllib 6B.WEP_posed.mtl
usemtl mat0
v -16 36.99999999999999 -48.00000000000001
v 58 34.99999999999999 -63.00000000000001
v 53 43.99999999999999 -44.00000000000001
v 53 44.00000000000001 43.99999999999999
v 58 35.00000000000001 61.99999999999999
v -22 36.00000000000001 47.99999999999999
v -16 24.999999999999993 -48
v 53 28.999999999999993 -44
v 57 18.999999999999993 -63
v 53 29.000000000000007 44
v -22 25.000000000000007 48
v 57 19.000000000000007 62
v -141 30 -3.67394039744206e-15
v 59 33 -18.000000000000004
v -86 26.999999999999996 -27.000000000000004
v -141 30 -3.67394039744206e-15
v 59 33 17.999999999999996
v 73 37 -4.531193156845207e-15
v -141 30 -3.67394039744206e-15
v 73 37 -4.531193156845207e-15
v 59 33 -18.000000000000004
v -141 30 -3.67394039744206e-15
v -86 27.000000000000004 27.999999999999996
v 59 33 17.999999999999996
v -29 -13 1.592040838891559e-15
v 26 -13 1.592040838891559e-15
v -29 31 -3.796405077356795e-15
v 26 31 -3.796405077356795e-15
v 26 -13 1.592040838891559e-15
v -29 -13 1.592040838891559e-15
v 26 31 -3.796405077356795e-15
v -29 31 -3.796405077356795e-15
v 53 43.99999999999999 -44.00000000000001
v 58 34.99999999999999 -63.00000000000001
v 53 28.999999999999993 -44
v 57 18.999999999999993 -63
v 59 49 -18.000000000000007
v 53 43.99999999999999 -44.00000000000001
v 59 33 -18.000000000000004
v 53 28.999999999999993 -44
v 73 53 -6.490628035480972e-15
v 59 49 -18.000000000000007
v 73 37 -4.531193156845207e-15
v 59 33 -18.000000000000004
v 73 53 -6.490628035480972e-15
v 73 37 -4.531193156845207e-15
v 59 49 17.999999999999993
v 59 33 17.999999999999996
v 59 49 17.999999999999993
v 59 33 17.999999999999996
v 53 44.00000000000001 43.99999999999999
v 53 29.000000000000007 44
v 53 44.00000000000001 43.99999999999999
v 53 29.000000000000007 44
v 58 35.00000000000001 61.99999999999999
v 57 19.000000000000007 62
v 58 34.99999999999999 -63.00000000000001
v -16 36.99999999999999 -48.00000000000001
v 57 18.999999999999993 -63
v -16 24.999999999999993 -48
v -16 36.99999999999999 -48.00000000000001
v -86 35 -27.000000000000004
v -16 24.999999999999993 -48
v -86 26.999999999999996 -27.000000000000004
v -86 35 -27.000000000000004
v -141 35 -4.2862637970157365e-15
v -86 26.999999999999996 -27.000000000000004
v -141 30 -3.67394039744206e-15
v 57 19.000000000000007 62
v -22 25.000000000000007 48
v 58 35.00000000000001 61.99999999999999
v -22 36.00000000000001 47.99999999999999
v -22 25.000000000000007 48
v -86 27.000000000000004 27.999999999999996
v -22 36.00000000000001 47.99999999999999
v -86 34 27.999999999999996
v -86 27.000000000000004 27.999999999999996
v -141 35 -4.2862637970157365e-15
v -86 34 27.999999999999996
v -141 30 -3.67394039744206e-15
v -22 36.00000000000001 47.99999999999999
v -86 34 27.999999999999996
v 53 44.00000000000001 43.99999999999999
v 59 49 17.999999999999993
v 53 43.99999999999999 -44.00000000000001
v 59 49 -18.000000000000007
v -16 36.99999999999999 -48.00000000000001
v -86 35 -27.000000000000004
v -86 27.000000000000004 27.999999999999996
v -22 25.000000000000007 48
v 59 33 17.999999999999996
v 53 29.000000000000007 44
v 59 33 -18.000000000000004
v 53 28.999999999999993 -44
v -86 26.999999999999996 -27.000000000000004
v -16 24.999999999999993 -48
v -141 35 -4.2862637970157365e-15
v -86 35 -27.000000000000004
v 59 49 -18.000000000000007
v -141 35 -4.2862637970157365e-15
v 73 53 -6.490628035480972e-15
v 59 49 17.999999999999993
v -141 35 -4.2862637970157365e-15
v 59 49 -18.000000000000007
v 73 53 -6.490628035480972e-15
v -141 35 -4.2862637970157365e-15
v 59 49 17.999999999999993
v -86 34 27.999999999999996
vt 0.59375 0.09375
vt 0.90625 0.03125
vt 0.90625 0.15625
vt 0.90625 0.78125
vt 0.90625 0.90625
vt 0.609375 0.84375
vt 0.171875 0.09375
vt 0.171875 0.03125
vt 0.1875 0.03125
vt 0.046875 0.03125
vt 0.046875 0.09375
vt 0.03125 0.03125
vt 0.109375 0.3125
vt 0.140625 0.03125
vt 0.140625 0.21875
vt 0.109375 0.3125
vt 0.078125 0.03125
vt 0.109375 0.03125
vt 0.109375 0.3125
vt 0.109375 0.03125
vt 0.140625 0.03125
vt 0.109375 0.3125
vt 0.078125 0.21875
vt 0.078125 0.03125
vt 0.140625 0.71875
vt 0.015625 0.71875
vt 0.140625 0.84375
vt 0.015625 0.84375
vt 0.015625 0.71875
vt 0.140625 0.71875
vt 0.015625 0.84375
vt 0.140625 0.84375
vt 0.0625 0.9375
vt 0.015625 0.9375
vt 0.0625 0.875
vt 0.015625 0.875
vt 0.09375 0.9375
vt 0.0625 0.9375
vt 0.09375 0.875
vt 0.0625 0.875
vt 0.125 0.9375
vt 0.09375 0.9375
vt 0.125 0.875
vt 0.09375 0.875
vt 0.125 0.9375
vt 0.125 0.875
vt 0.15625 0.9375
vt 0.15625 0.875
vt 0.15625 0.9375
vt 0.15625 0.875
vt 0.1875 0.9375
vt 0.1875 0.875
vt 0.1875 0.9375
vt 0.1875 0.875
vt 0.234375 0.9375
vt 0.234375 0.875
vt 0.25 0.8125
vt 0.4375 0.875
vt 0.25 0.9375
vt 0.4375 0.9375
vt 0.4375 0.875
vt 0.578125 0.875
vt 0.4375 0.9375
vt 0.578125 0.9375
vt 0.578125 0.875
vt 0.78125 0.9375
vt 0.578125 0.9375
vt 0.78125 0.9375
vt 0.25 0.9375
vt 0.4375 0.9375
vt 0.25 0.8125
vt 0.4375 0.875
vt 0.4375 0.9375
vt 0.578125 0.9375
vt 0.4375 0.875
vt 0.578125 0.875
vt 0.578125 0.9375
vt 0.78125 0.9375
vt 0.578125 0.875
vt 0.78125 0.9375
vt 0.609375 0.84375
vt 0.359375 0.78125
vt 0.90625 0.78125
vt 0.90625 0.625
vt 0.90625 0.15625
vt 0.90625 0.3125
vt 0.59375 0.09375
vt 0.359375 0.15625
vt 0.078125 0.21875
vt 0.046875 0.09375
vt 0.078125 0.03125
vt 0.046875 0.03125
vt 0.140625 0.03125
vt 0.171875 0.03125
vt 0.140625 0.21875
vt 0.171875 0.09375
vt 0.015625 0.46875
vt 0.359375 0.15625
vt 0.90625 0.3125
vt 0.015625 0.46875
vt 0.96875 0.46875
vt 0.90625 0.625
vt 0.015625 0.46875
vt 0.90625 0.3125
vt 0.96875 0.46875
vt 0.015625 0.46875
vt 0.90625 0.625
vt 0.359375 0.78125
vn -0.06522999024199687 0.8950630516110253 -0.44114304030981605
vn -0.06522999024199687 0.8950630516110253 -0.44114304030981605
vn -0.06522999024199687 0.8950630516110253 -0.44114304030981605
vn -0.06971676564288944 0.8843700780011023 0.46155079647273733
vn -0.06971676564288944 0.8843700780011023 0.46155079647273733
vn -0.06971676564288944 0.8843700780011023 0.46155079647273733
vn 0.0239433425879869 -0.8825782059192482 0.46955556304028095
vn 0.0239433425879869 -0.8825782059192482 0.46955556304028095
vn 0.0239433425879869 -0.8825782059192482 0.46955556304028095
vn 0.02042848058920569 -0.8720407489699883 -0.4890067579458167
vn 0.02042848058920569 -0.8720407489699883 -0.4890067579458167
vn 0.02042848058920569 -0.8720407489699883 -0.4890067579458167
vn 0.030148088734522127 -0.9848375851959377 0.1708391744626792
vn 0.030148088734522127 -0.9848375851959377 0.1708391744626792
vn 0.030148088734522127 -0.9848375851959377 0.1708391744626792
vn 0.03207826579660032 -0.9806784285259652 -0.19297876745208456
vn 0.03207826579660032 -0.9806784285259652 -0.19297876745208456
vn 0.03207826579660032 -0.9806784285259652 -0.19297876745208456
vn 0.03207826579660032 -0.9806784285259652 0.19297876745208478
vn 0.03207826579660032 -0.9806784285259652 0.19297876745208478
vn 0.03207826579660032 -0.9806784285259652 0.19297876745208478
vn 0.029518215493717734 -0.9860794713917894 -0.16363358779222478
vn 0.029518215493717734 -0.9860794713917894 -0.16363358779222478
vn 0.029518215493717734 -0.9860794713917894 -0.16363358779222478
vn 0 -1.2246467991473532e-16 -1
vn 0 -1.2246467991473532e-16 -1
vn 0 -1.2246467991473532e-16 -1
vn 0 -1.2246467991473532e-16 -1
vn 0 1.2246467991473532e-16 1
vn 0 1.2246467991473532e-16 1
vn 0 1.2246467991473532e-16 1
vn 0 1.2246467991473532e-16 1
vn 0.9670745364905655 3.116644079602656e-17 0.25449330221355126
vn 0.9689872536693378 -0.03125765262314821 0.2451258072477178
vn 0.9689872536693378 -0.03125765262314821 0.2451258072477178
vn 0.9698412972278221 -0.06061508107673885 0.23607979612308141
vn 0.9743911972014787 -2.75373467139884e-17 -0.22485950016903625
vn 0.9743911972014787 -2.75373467139884e-17 -0.22485950016903625
vn 0.9743911972014787 -2.75373467139884e-17 -0.22485950016903625
vn 0.9743911972014787 -2.75373467139884e-17 -0.22485950016903625
vn 0.7893522334237303 -7.51860381940235e-17 -0.6139405928825433
vn 0.7893522334237303 -7.51860381940235e-17 -0.6139405928825433
vn 0.7893522334237303 -7.51860381940235e-17 -0.6139405928825433
vn 0.7893522334237303 -7.51860381940235e-17 -0.6139405928825433
vn 0.7893522334237303 7.51860381940235e-17 0.6139405928825433
vn 0.7893522334237303 7.51860381940235e-17 0.6139405928825433
vn 0.7893522334237303 7.51860381940235e-17 0.6139405928825433
vn 0.7893522334237303 7.51860381940235e-17 0.6139405928825433
vn 0.9743911972014787 2.75373467139884e-17 0.22485950016903625
vn 0.9743911972014787 2.75373467139884e-17 0.22485950016903625
vn 0.9743911972014787 2.75373467139884e-17 0.22485950016903625
vn 0.9743911972014787 2.75373467139884e-17 0.22485950016903625
vn 0.9635179079220711 -3.277692086266038e-17 -0.26764386993442474
vn 0.9656797930261938 -0.031150962206982376 -0.25786072770871193
vn 0.9656797930261938 -0.031150962206982376 -0.25786072770871193
vn 0.9667696022615753 -0.06042310014134848 -0.248406089120827
vn -0.19832537013196844 0.012395335633247908 -0.9800578570760793
vn -0.19958251262432591 0.007127946546824894 -0.9798550979775461
vn -0.19958251262432591 0.007127946546824894 -0.9798550979775461
vn -0.2012743042251972 -1.1995843012800069e-16 -0.9795349174269709
vn -0.28734789103466163 -1.1729988923262562e-16 -0.9578262835806567
vn -0.28734789103466163 -1.1729988923262562e-16 -0.9578262835806567
vn -0.28734789103466163 -1.1729988923262562e-16 -0.9578262835806567
vn -0.28734789103466163 -1.1729988923262562e-16 -0.9578262835806567
vn -0.4406732094147191 -1.0993257546851947e-16 -0.8976676013448025
vn -0.4406732094147191 -1.0993257546851947e-16 -0.8976676013448025
vn -0.4406732094147191 -1.0993257546851947e-16 -0.8976676013448025
vn -0.4406732094147191 -1.0993257546851947e-16 -0.8976676013448025
vn -0.17368662197979934 0.01085541387373758 0.984741142298257
vn -0.17315455025190635 0.006413131577045039 0.9848737855534766
vn -0.17315455025190635 0.006413131577045039 0.9848737855534766
vn -0.1723803274147362 1.206314409594441e-16 0.9850304679147688
vn -0.29827498974208805 1.1689008512496722e-16 0.9544799790956106
vn -0.29827498974208805 1.1689008512496722e-16 0.9544799790956106
vn -0.29827498974208805 1.1689008512496722e-16 0.9544799790956106
vn -0.29827498974208805 1.1689008512496722e-16 0.9544799790956106
vn -0.45368304884612437 1.0913600519419987e-16 0.8911631114390256
vn -0.45368304884612437 1.0913600519419987e-16 0.8911631114390256
vn -0.45368304884612437 1.0913600519419987e-16 0.8911631114390256
vn 0.45368304884612437 -1.0913600519419987e-16 -0.8911631114390256
vn -0.0932929715118016 0.9751336917255817 0.20102413966520682
vn -0.09104990699833833 0.9796827156454533 0.17869440702255776
vn -0.09104990699833833 0.9796827156454533 0.17869440702255776
vn -0.08996432757787293 0.9816695762057499 0.1680216144294674
vn -0.08984825602884414 0.9816754288533653 -0.1680495262538296
vn -0.08532752704506952 0.9801865062458848 -0.17875577221969344
vn -0.08532752704506952 0.9801865062458848 -0.17875577221969344
vn -0.08315102810030693 0.9794231716827853 -0.183891699912463
vn 0.02773940878544535 -0.9819751179434222 -0.18696361394730288
vn 0.033867001355823295 -0.9846650906400247 -0.17113645284987283
vn 0.033867001355823295 -0.9846650906400247 -0.17113645284987283
vn 0.04518232441134174 -0.9888768079104753 -0.14170820843401144
vn 0.031935918287684745 -0.9889489168129523 0.14477616191076023
vn 0.03542509651720411 -0.9841308529005813 0.17387215678745452
vn 0.03542509651720411 -0.9841308529005813 0.17387215678745452
vn 0.042686249746933316 -0.9711121845367007 0.23477437919606878
vn -0.08413746718782757 0.9816037739238811 -0.17139112472240675
vn -0.08413746718782757 0.9816037739238811 -0.17139112472240675
vn -0.08413746718782757 0.9816037739238811 -0.17139112472240675
vn -0.08281139352315793 0.9845354637814583 0.15437679119408285
vn -0.08281139352315793 0.9845354637814583 0.15437679119408285
vn -0.08281139352315793 0.9845354637814583 0.15437679119408285
vn -0.08281139352315793 0.9845354637814583 -0.15437679119408307
vn -0.08281139352315793 0.9845354637814583 -0.15437679119408307
vn -0.08281139352315793 0.9845354637814583 -0.15437679119408307
vn -0.086703629194664 0.9748871426859474 0.2051281056074544
vn -0.086703629194664 0.9748871426859474 0.2051281056074544
vn -0.086703629194664 0.9748871426859474 0.2051281056074544
f 3/3/3 2/2/2 1/1/1
f 6/6/6 5/5/5 4/4/4
f 9/9/9 8/8/8 7/7/7
f 12/12/12 11/11/11 10/10/10
f 15/15/15 14/14/14 13/13/13
f 18/18/18 17/17/17 16/16/16
f 21/21/21 20/20/20 19/19/19
f 24/24/24 23/23/23 22/22/22
f 27/27/27 26/26/26 25/25/25
f 26/26/26 27/27/27 28/28/28
f 31/31/31 30/30/30 29/29/29
f 30/30/30 31/31/31 32/32/32
f 35/35/35 34/34/34 33/33/33
f 34/34/34 35/35/35 36/36/36
f 39/39/39 38/38/38 37/37/37
f 38/38/38 39/39/39 40/40/40
f 43/43/43 42/42/42 41/41/41
f 42/42/42 43/43/43 44/44/44
f 47/47/47 46/46/46 45/45/45
f 46/46/46 47/47/47 48/48/48
f 51/51/51 50/50/50 49/49/49
f 50/50/50 51/51/51 52/52/52
f 55/55/55 54/54/54 53/53/53
f 54/54/54 55/55/55 56/56/56
f 59/59/59 58/58/58 57/57/57
f 58/58/58 59/59/59 60/60/60
f 63/63/63 62/62/62 61/61/61
f 62/62/62 63/63/63 64/64/64
f 67/67/67 66/66/66 65/65/65
f 66/66/66 67/67/67 68/68/68
f 71/71/71 70/70/70 69/69/69
f 70/70/70 71/71/71 72/72/72
f 75/75/75 74/74/74 73/73/73
f 74/74/74 75/75/75 76/76/76
f 79/79/79 78/78/78 77/77/77
f 78/78/78 79/79/79 80/80/80
f 83/83/83 82/82/82 81/81/81
f 82/82/82 83/83/83 84/84/84
f 87/87/87 86/86/86 85/85/85
f 86/86/86 87/87/87 88/88/88
f 91/91/91 90/90/90 89/89/89
f 90/90/90 91/91/91 92/92/92
f 95/95/95 94/94/94 93/93/93
f 94/94/94 95/95/95 96/96/96
f 99/99/99 98/98/98 97/97/97
f 102/102/102 101/101/101 100/100/100
f 105/105/105 104/104/104 103/103/103
f 108/108/108 107/107/107 106/106/106
