mtllib 60.WEP_posed.mtl
usemtl mat0
v -17 28.999999999999993 -46
v 12 28.999999999999993 -46
v 36 28.999999999999996 -28.000000000000004
v 12 29.000000000000007 45
v -17 29.000000000000007 45
v -41 29.000000000000004 27.999999999999996
v 24 -12 1.4695761589768238e-15
v 24 18 -2.204364238465236e-15
v -24 -12 1.4695761589768238e-15
v -24 19 -2.326828918379971e-15
v -24 -12 1.4695761589768238e-15
v -24 19 -2.326828918379971e-15
v 24 -12 1.4695761589768238e-15
v 24 18 -2.204364238465236e-15
v -24 19 -2.326828918379971e-15
v -41 18.999999999999996 -28.000000000000004
v -41 19.000000000000004 27.999999999999996
v -51 19 -2.326828918379971e-15
v 45 18 -2.204364238465236e-15
v 36 17.999999999999996 -28.000000000000004
v 36 18.000000000000004 27.999999999999996
v 24 18 -2.204364238465236e-15
v 36 17.999999999999996 -28.000000000000004
v -41 18.999999999999996 -28.000000000000004
v 24 18 -2.204364238465236e-15
v -24 19 -2.326828918379971e-15
v 24 18 -2.204364238465236e-15
v -24 19 -2.326828918379971e-15
v 36 18.000000000000004 27.999999999999996
v -41 19.000000000000004 27.999999999999996
v -17 19.000000000000007 45
v 12 19.000000000000007 45
v -41 19.000000000000004 27.999999999999996
v 36 18.000000000000004 27.999999999999996
v 12 18.999999999999993 -46
v -17 18.999999999999993 -46
v 36 17.999999999999996 -28.000000000000004
v -41 18.999999999999996 -28.000000000000004
v -41 18.999999999999996 -28.000000000000004
v -41 28.999999999999996 -28.000000000000004
v -51 19 -2.326828918379971e-15
v -50 29 -3.5514757175273244e-15
v -17 18.999999999999993 -46
v -17 28.999999999999993 -46
v -41 18.999999999999996 -28.000000000000004
v -41 28.999999999999996 -28.000000000000004
v 12 18.999999999999993 -46
v 12 28.999999999999993 -46
v -17 18.999999999999993 -46
v -17 28.999999999999993 -46
v 36 17.999999999999996 -28.000000000000004
v 36 28.999999999999996 -28.000000000000004
v 12 18.999999999999993 -46
v 12 28.999999999999993 -46
v 45 18 -2.204364238465236e-15
v 45 29 -3.5514757175273244e-15
v 36 17.999999999999996 -28.000000000000004
v 36 28.999999999999996 -28.000000000000004
v 36 18.000000000000004 27.999999999999996
v 36 29.000000000000004 27.999999999999996
v 45 18 -2.204364238465236e-15
v 45 29 -3.5514757175273244e-15
v 12 19.000000000000007 45
v 12 29.000000000000007 45
v 36 18.000000000000004 27.999999999999996
v 36 29.000000000000004 27.999999999999996
v -17 19.000000000000007 45
v -17 29.000000000000007 45
v 12 19.000000000000007 45
v 12 29.000000000000007 45
v -41 19.000000000000004 27.999999999999996
v -41 29.000000000000004 27.999999999999996
v -17 19.000000000000007 45
v -17 29.000000000000007 45
v -51 19 -2.326828918379971e-15
v -50 29 -3.5514757175273244e-15
v -41 19.000000000000004 27.999999999999996
v -41 29.000000000000004 27.999999999999996
v 12 29.000000000000007 45
v -41 29.000000000000004 27.999999999999996
v 36 29.000000000000004 27.999999999999996
v -50 29 -3.5514757175273244e-15
v 36 29.000000000000004 27.999999999999996
v -50 29 -3.5514757175273244e-15
v 45 29 -3.5514757175273244e-15
v -41 28.999999999999996 -28.000000000000004
v 36 28.999999999999996 -28.000000000000004
v 45 29 -3.5514757175273244e-15
v -17 28.999999999999993 -46
v -41 28.999999999999996 -28.000000000000004
vt 0.359375 0.1875
vt 0.59375 0.03125
vt 0.8125 0.1875
vt 0.8125 0.1875
vt 0.59375 0.03125
vt 0.359375 0.1875
vt 0.84375 0.03125
vt 0.84375 0.15625
vt 0.96875 0.03125
vt 0.96875 0.15625
vt 0.96875 0.03125
vt 0.96875 0.15625
vt 0.84375 0.03125
vt 0.84375 0.15625
vt 0.203125 0.21875
vt 0.25 0.3125
vt 0.15625 0.3125
vt 0.203125 0.3125
vt 0.203125 0.03125
vt 0.25 0.03125
vt 0.15625 0.03125
vt 0.203125 0.125
vt 0.25 0.03125
vt 0.25 0.3125
vt 0.203125 0.125
vt 0.203125 0.21875
vt 0.203125 0.125
vt 0.203125 0.21875
vt 0.15625 0.03125
vt 0.15625 0.3125
vt 0.125 0.21875
vt 0.125 0.125
vt 0.15625 0.3125
vt 0.15625 0.03125
vt 0.28125 0.125
vt 0.28125 0.21875
vt 0.25 0.03125
vt 0.25 0.3125
vt 0.203125 0.65625
vt 0.125 0.65625
vt 0.203125 0.9375
vt 0.125 0.9375
vt 0.09375 0.71875
vt 0.015625 0.71875
vt 0.09375 0.9375
vt 0.015625 0.9375
vt 0.09375 0.5
vt 0.015625 0.5
vt 0.09375 0.71875
vt 0.015625 0.71875
vt 0.09375 0.25
vt 0.015625 0.25
vt 0.09375 0.5
vt 0.015625 0.5
vt 0.09375 0.03125
vt 0.015625 0.03125
vt 0.09375 0.25
vt 0.015625 0.25
vt 0.203125 0.625
vt 0.125 0.625
vt 0.203125 0.375
vt 0.125 0.375
vt 0.09375 0.25
vt 0.015625 0.25
vt 0.09375 0.03125
vt 0.015625 0.03125
vt 0.09375 0.5
vt 0.015625 0.5
vt 0.09375 0.25
vt 0.015625 0.25
vt 0.09375 0.71875
vt 0.015625 0.71875
vt 0.09375 0.5
vt 0.015625 0.5
vt 0.09375 0.9375
vt 0.015625 0.9375
vt 0.09375 0.71875
vt 0.015625 0.71875
vt 0.8125 0.1875
vt 0.359375 0.1875
vt 0.96875 0.53125
vt 0.21875 0.53125
vt 0.96875 0.9375
vt 0.21875 0.9375
vt 0.96875 0.53125
vt 0.21875 0.53125
vt 0.8125 0.1875
vt 0.96875 0.53125
vt 0.359375 0.1875
vt 0.21875 0.53125
vn 0 1 -1.2246467991473532e-16
vn 0 1 -1.2246467991473532e-16
vn 0 1 -1.2246467991473532e-16
vn 0 1 -1.2246467991473532e-16
vn 0 1 -1.2246467991473532e-16
vn 0 1 -1.2246467991473532e-16
vn 0 -1.2246467991473532e-16 -1
vn 0 -1.2246467991473532e-16 -1
vn 0 -1.2246467991473532e-16 -1
vn 0 -1.2246467991473532e-16 -1
vn 0 1.2246467991473532e-16 1
vn 0 1.2246467991473532e-16 1
vn 0 1.2246467991473532e-16 1
vn 0 1.2246467991473532e-16 1
vn 0 -1 1.2246467991473532e-16
vn 0 -1 1.2246467991473532e-16
vn 0 -1 1.2246467991473532e-16
vn 0 -1 1.2246467991473532e-16
vn 0 -1 1.2246467991473532e-16
vn 0 -1 1.2246467991473532e-16
vn 0 -1 1.2246467991473532e-16
vn 0 -1 1.2246467991473532e-16
vn -0.0129857162162475 -0.9999001942858624 -0.005565306949820235
vn -0.01599793677307005 -0.9998710045447176 0.0014283871120968164
vn -0.01599793677307005 -0.9998710045447176 0.0014283871120968164
vn -0.020827148378581132 -0.9997031221718943 0.012645054771848347
vn -0.020827984482065458 -0.9997432253368195 0.00892627893069638
vn -0.01599793677307005 -0.9998710045447176 -0.0014283871120965713
vn -0.01599793677307005 -0.9998710045447176 -0.0014283871120965713
vn -0.01298551443696786 -0.9998846023332995 -0.007884061871069077
vn 0 -1 1.2246467991473532e-16
vn -0.00942946479946235 -0.9995233153091366 0.029397743910511753
vn -0.00942946479946235 -0.9995233153091366 0.029397743910511753
vn -0.012975288403652113 -0.9990972163944384 0.04045236808552278
vn 0 -0.9984603532054124 -0.055470019622522786
vn -0.009429905778080514 -0.9995699752236306 -0.027765833472943036
vn -0.009429905778080514 -0.9995699752236306 -0.027765833472943036
vn -0.012983972407194537 -0.9997658287878499 -0.01731196258871087
vn -0.9417419062007517 -4.118933105169246e-17 -0.336336412101596
vn -0.9459189549874121 0.047295945514196434 -0.3209367914924064
vn -0.9459189549874121 0.047295945514196434 -0.3209367914924064
vn -0.9477432754605026 0.09477432605593412 -0.30463176285482985
vn -0.6000000095367428 -9.79717430558526e-17 -0.7999999928474427
vn -0.6000000095367428 -9.79717430558526e-17 -0.7999999928474427
vn -0.6000000095367428 -9.79717430558526e-17 -0.7999999928474427
vn -0.6000000095367428 -9.79717430558526e-17 -0.7999999928474427
vn 0 -1.2246467991473532e-16 -1
vn 0 -1.2246467991473532e-16 -1
vn 0 -1.2246467991473532e-16 -1
vn 0 -1.2246467991473532e-16 -1
vn 0.6000000095367428 -9.79717430558526e-17 -0.7999999928474427
vn 0.6000000095367428 -9.79717430558526e-17 -0.7999999928474427
vn 0.6000000095367428 -9.79717430558526e-17 -0.7999999928474427
vn 0.6000000095367428 -9.79717430558526e-17 -0.7999999928474427
vn 0.9520285643860839 -3.7475315148847224e-17 -0.3060091707661262
vn 0.9520285643860839 -3.7475315148847224e-17 -0.3060091707661262
vn 0.9520285643860839 -3.7475315148847224e-17 -0.3060091707661262
vn 0.9520285643860839 -3.7475315148847224e-17 -0.3060091707661262
vn 0.9520285643860839 3.7475315148847224e-17 0.3060091707661262
vn 0.9520285643860839 3.7475315148847224e-17 0.3060091707661262
vn 0.9520285643860839 3.7475315148847224e-17 0.3060091707661262
vn 0.9520285643860839 3.7475315148847224e-17 0.3060091707661262
vn 0.5780173490491913 9.993417616341383e-17 0.8160244752445512
vn 0.5780173490491913 9.993417616341383e-17 0.8160244752445512
vn 0.5780173490491913 9.993417616341383e-17 0.8160244752445512
vn 0.5780173490491913 9.993417616341383e-17 0.8160244752445512
vn 0 1.2246467991473532e-16 1
vn 0 1.2246467991473532e-16 1
vn 0 1.2246467991473532e-16 1
vn 0 1.2246467991473532e-16 1
vn -0.5780173490491913 9.993417616341383e-17 0.8160244752445512
vn -0.5780173490491913 9.993417616341383e-17 0.8160244752445512
vn -0.5780173490491913 9.993417616341383e-17 0.8160244752445512
vn -0.5780173490491913 9.993417616341383e-17 0.8160244752445512
vn -0.9375934340491853 0.09375934042468641 0.33485480213218355
vn -0.9459189549874121 0.04729594551419652 0.3209367914924064
vn -0.9459189549874121 0.04729594551419652 0.3209367914924064
vn -0.9520285643860839 3.7475315148847224e-17 0.3060091707661262
vn 0 1 -1.2246467991473532e-16
vn 0 1 -1.2246467991473532e-16
vn 0 1 -1.2246467991473532e-16
vn 0 1 -1.2246467991473532e-16
vn 0 1 -1.2246467991473532e-16
vn 0 1 -1.2246467991473532e-16
vn 0 1 -1.2246467991473532e-16
vn 0 1 -1.2246467991473532e-16
vn 0 1 -1.2246467991473532e-16
vn 0 1 -1.2246467991473532e-16
vn 0 1 -1.2246467991473532e-16
vn 0 1 -1.2246467991473532e-16
f 3/3/3 2/2/2 1/1/1
f 6/6/6 5/5/5 4/4/4
f 9/9/9 8/8/8 7/7/7
f 8/8/8 9/9/9 10/10/10
f 13/13/13 12/12/12 11/11/11
f 12/12/12 13/13/13 14/14/14
f 17/17/17 16/16/16 15/15/15
f 16/16/16 17/17/17 18/18/18
f 21/21/21 20/20/20 19/19/19
f 20/20/20 21/21/21 22/22/22
f 25/25/25 24/24/24 23/23/23
f 24/24/24 25/25/25 26/26/26
f 29/29/29 28/28/28 27/27/27
f 28/28/28 29/29/29 30/30/30
f 33/33/33 32/32/32 31/31/31
f 32/32/32 33/33/33 34/34/34
f 37/37/37 36/36/36 35/35/35
f 36/36/36 37/37/37 38/38/38
f 41/41/41 40/40/40 39/39/39
f 40/40/40 41/41/41 42/42/42
f 45/45/45 44/44/44 43/43/43
f 44/44/44 45/45/45 46/46/46
f 49/49/49 48/48/48 47/47/47
f 48/48/48 49/49/49 50/50/50
f 53/53/53 52/52/52 51/51/51
f 52/52/52 53/53/53 54/54/54
f 57/57/57 56/56/56 55/55/55
f 56/56/56 57/57/57 58/58/58
f 61/61/61 60/60/60 59/59/59
f 60/60/60 61/61/61 62/62/62
f 65/65/65 64/64/64 63/63/63
f 64/64/64 65/65/65 66/66/66
f 69/69/69 68/68/68 67/67/67
f 68/68/68 69/69/69 70/70/70
f 73/73/73 72/72/72 71/71/71
f 72/72/72 73/73/73 74/74/74
f 77/77/77 76/76/76 75/75/75
f 76/76/76 77/77/77 78/78/78
f 81/81/81 80/80/80 79/79/79
f 80/80/80 81/81/81 82/82/82
f 85/85/85 84/84/84 83/83/83
f 84/84/84 85/85/85 86/86/86
f 89/89/89 88/88/88 87/87/87
f 88/88/88 89/89/89 90/90/90
