mtllib 57.WEP_posed.mtl
usemtl mat0
v 137 15.000000000000007 61
v 129 14.000000000000007 61
v 132 21.000000000000007 60
v 137 14.999999999999993 -62
v 132 20.999999999999993 -61
v 129 13.999999999999993 -62
v -10 19 1.9999999999999978
v -16 16 -1.959434878635765e-15
v -10 19 -3.000000000000002
v 57 -3.999999999999999 6.000000000000001
v 73 8 5.999999999999999
v 76 -2.999999999999999 7
v 57 -4.000000000000001 -6.999999999999999
v 76 -3.000000000000001 -8
v 73 7.999999999999999 -7.000000000000001
v 167 6.000000000000001 6.999999999999999
v 167 -6.999999999999999 7.000000000000001
v 148 11 6.999999999999998
v 148 10.999999999999998 -8.000000000000002
v 167 -7.000000000000001 -7.999999999999999
v 167 5.999999999999999 -8
v 57 -3.999999999999999 6.000000000000001
v -2 -9 4.000000000000001
v 73 8 5.999999999999999
v 3 -0.9999999999999997 3
v 57 -4.000000000000001 -6.999999999999999
v -2 -9 -4.999999999999999
v 57 -3.999999999999999 6.000000000000001
v -2 -9 4.000000000000001
v 174 5.999999999999999 -8
v 174 11.999999999999998 -8.000000000000002
v 167 5.999999999999999 -8
v 148 10.999999999999998 -8.000000000000002
v 174 12 6.999999999999998
v 174 6.000000000000001 6.999999999999999
v 148 11 6.999999999999998
v 167 6.000000000000001 6.999999999999999
v 129 13.999999999999993 -62
v 132 20.999999999999993 -61
v 135 7.999999999999999 -8.000000000000002
v 138 16 -7.000000000000002
v 132 21.000000000000007 60
v 129 14.000000000000007 61
v 138 16 5.999999999999998
v 135 8 6.999999999999999
v 129 14.000000000000007 61
v 137 15.000000000000007 61
v 135 8 6.999999999999999
v 143 10 6.999999999999999
v 137 15.000000000000007 61
v 132 21.000000000000007 60
v 143 10 6.999999999999999
v 138 16 5.999999999999998
v 132 20.999999999999993 -61
v 137 14.999999999999993 -62
v 138 16 -7.000000000000002
v 143 9.999999999999998 -8.000000000000002
v 137 14.999999999999993 -62
v 129 13.999999999999993 -62
v 143 9.999999999999998 -8.000000000000002
v 135 7.999999999999999 -8.000000000000002
v 73 8 5.999999999999999
v 3 -0.9999999999999997 3
v 73 7.999999999999999 -7.000000000000001
v 3 -1.0000000000000004 -4
v 148 10.999999999999998 -8.000000000000002
v 76 -3.000000000000001 -8
v 167 -7.000000000000001 -7.999999999999999
v 89 -19 -7.999999999999997
v 174 11.999999999999998 -8.000000000000002
v 174 12 6.999999999999998
v 148 10.999999999999998 -8.000000000000002
v 148 11 6.999999999999998
v 167 -6.999999999999999 7.000000000000001
v 89 -19 7.000000000000003
v 148 11 6.999999999999998
v 76 -2.999999999999999 7
v 148 10.999999999999998 -8.000000000000002
v 143 25 -6.000000000000003
v 76 -3.000000000000001 -8
v 73 7.999999999999999 -7.000000000000001
v 143 25 4.999999999999997
v 148 11 6.999999999999998
v 73 8 5.999999999999999
v 76 -2.999999999999999 7
v 89 -19 7.000000000000003
v 89 -19 -7.999999999999997
v 76 -2.999999999999999 7
v 76 -3.000000000000001 -8
v 167 5.999999999999999 -8
v 167 -7.000000000000001 -7.999999999999999
v 167 6.000000000000001 6.999999999999999
v 167 -6.999999999999999 7.000000000000001
v -10 19 -3.000000000000002
v 2 -1.0000000000000004 -3
v -10 19 1.9999999999999978
v 2 -0.9999999999999998 2
v 2 -0.9999999999999998 2
v -1 -8 9.797174393178826e-16
v -10 19 1.9999999999999978
v -16 16 -1.959434878635765e-15
v -1 -8 9.797174393178826e-16
v 2 -1.0000000000000004 -3
v -16 16 -1.959434878635765e-15
v -10 19 -3.000000000000002
v 57 -4.000000000000001 -6.999999999999999
v 15 -24 -6.999999999999997
v 76 -3.000000000000001 -8
v 18 -32 -6.9999999999999964
v 148 10.999999999999998 -8.000000000000002
v 148 11 6.999999999999998
v 143 25 -6.000000000000003
v 143 25 4.999999999999997
v -2 -9 4.000000000000001
v -2 -9 -4.999999999999999
v 3 -0.9999999999999997 3
v 3 -1.0000000000000004 -4
v 73 7.999999999999999 -7.000000000000001
v 143 25 -6.000000000000003
v 73 8 5.999999999999999
v 143 25 4.999999999999997
v 167 -6.999999999999999 7.000000000000001
v 167 -7.000000000000001 -7.999999999999999
v 89 -19 7.000000000000003
v 89 -19 -7.999999999999997
v 18 -32 7.0000000000000036
v 76 -2.999999999999999 7
v 18 -32 -6.9999999999999964
v 76 -3.000000000000001 -8
v 15 -24 -6.999999999999997
v 57 -4.000000000000001 -6.999999999999999
v 15 -24 7.000000000000003
v 57 -3.999999999999999 6.000000000000001
v 15 -24 7.000000000000003
v 18 -32 7.0000000000000036
v 15 -24 -6.999999999999997
v 18 -32 -6.9999999999999964
v 76 -2.999999999999999 7
v 18 -32 7.0000000000000036
v 57 -3.999999999999999 6.000000000000001
v 15 -24 7.000000000000003
v 73 7.999999999999999 -7.000000000000001
v 3 -1.0000000000000004 -4
v 57 -4.000000000000001 -6.999999999999999
v -2 -9 -4.999999999999999
v 174 6.000000000000001 6.999999999999999
v 174 12 6.999999999999998
v 174 5.999999999999999 -8
v 174 11.999999999999998 -8.000000000000002
v 174 6.000000000000001 6.999999999999999
v 174 5.999999999999999 -8
v 167 6.000000000000001 6.999999999999999
v 167 5.999999999999999 -8
v 135 7.999999999999999 -8.000000000000002
v 129 13.999999999999993 -62
v 76 -3.000000000000001 -8
v 76 -2.999999999999999 7
v 129 14.000000000000007 61
v 135 8 6.999999999999999
v 166 -34 7.000000000000004
v 167 -6.999999999999999 7.000000000000001
v 166 -34 -7.999999999999996
v 167 -7.000000000000001 -7.999999999999999
vt 0.046875 0.78125
vt 0.09375 0.78125
vt 0.0703125 0.9375
vt 0.046875 0.78125
vt 0.0703125 0.9375
vt 0.09375 0.78125
vt 0.1015625 0.59375
vt 0.125 0.4375
vt 0.1484375 0.59375
vt 0.546875 0.59375
vt 0.5078125 0.75
vt 0.5078125 0.59375
vt 0.546875 0.59375
vt 0.5078125 0.59375
vt 0.5078125 0.75
vt 0.21875 0.5
vt 0.21875 0.3125
vt 0.2890625 0.59375
vt 0.2890625 0.59375
vt 0.21875 0.3125
vt 0.21875 0.5
vt 0.546875 0.59375
vt 0.6484375 0.59375
vt 0.5078125 0.75
vt 0.6328125 0.75
vt 0.546875 0.3125
vt 0.6484375 0.3125
vt 0.546875 0.5625
vt 0.6484375 0.5625
vt 0.1875 0.5
vt 0.1875 0.59375
vt 0.21875 0.5
vt 0.2890625 0.59375
vt 0.1875 0.59375
vt 0.1875 0.5
vt 0.2890625 0.59375
vt 0.21875 0.5
vt 0.984375 0.9375
vt 0.984375 0.75
vt 0.75 0.9375
vt 0.75 0.75
vt 0.984375 0.75
vt 0.984375 0.9375
vt 0.75 0.75
vt 0.75 0.9375
vt 0.984375 0.3125
vt 0.984375 0.53125
vt 0.75 0.3125
vt 0.75 0.53125
vt 0.984375 0.53125
vt 0.984375 0.75
vt 0.75 0.53125
vt 0.75 0.75
vt 0.984375 0.75
vt 0.984375 0.53125
vt 0.75 0.75
vt 0.75 0.53125
vt 0.984375 0.53125
vt 0.984375 0.3125
vt 0.75 0.53125
vt 0.75 0.3125
vt 0.8515625 0.03125
vt 0.984375 0.03125
vt 0.8515625 0.28125
vt 0.984375 0.28125
vt 0.2890625 0.59375
vt 0.5078125 0.5625
vt 0.21875 0.3125
vt 0.484375 0.3125
vt 0.546875 0.28125
vt 0.546875 0.03125
vt 0.625 0.28125
vt 0.625 0.03125
vt 0.21875 0.3125
vt 0.484375 0.3125
vt 0.2890625 0.59375
vt 0.5078125 0.5625
vt 0.2890625 0.59375
vt 0.2890625 0.75
vt 0.5078125 0.59375
vt 0.5078125 0.75
vt 0.2890625 0.75
vt 0.2890625 0.59375
vt 0.5078125 0.75
vt 0.5078125 0.59375
vt 0.484375 0.3125
vt 0.484375 0.03125
vt 0.5390625 0.3125
vt 0.5390625 0.03125
vt 0.65625 0.5625
vt 0.65625 0.3125
vt 0.71875 0.5625
vt 0.71875 0.3125
vt 0.65625 0.9375
vt 0.65625 0.59375
vt 0.6953125 0.9375
vt 0.6953125 0.59375
vt 0.6953125 0.59375
vt 0.7421875 0.59375
vt 0.6953125 0.9375
vt 0.7421875 0.9375
vt 0.7421875 0.59375
vt 0.6953125 0.59375
vt 0.7421875 0.9375
vt 0.6953125 0.9375
vt 0.1328125 0.9375
vt 0.265625 0.9375
vt 0.1015625 0.8125
vt 0.265625 0.8125
vt 0.625 0.28125
vt 0.625 0.03125
vt 0.71875 0.28125
vt 0.71875 0.03125
vt 0.4296875 0.78125
vt 0.4765625 0.78125
vt 0.4296875 0.9375
vt 0.4765625 0.9375
vt 0.8515625 0.28125
vt 0.71875 0.28125
vt 0.8515625 0.03125
vt 0.71875 0.03125
vt 0.21875 0.3125
vt 0.21875 0.03125
vt 0.484375 0.3125
vt 0.484375 0.03125
vt 0.265625 0.8125
vt 0.1015625 0.8125
vt 0.265625 0.625
vt 0.1015625 0.625
vt 0.4140625 0.9375
vt 0.2734375 0.9375
vt 0.4140625 0.78125
vt 0.2734375 0.78125
vt 0.5 0.9375
vt 0.5 0.78125
vt 0.5703125 0.9375
vt 0.5703125 0.78125
vt 0.1015625 0.8125
vt 0.265625 0.8125
vt 0.1328125 0.9375
vt 0.265625 0.9375
vt 0.5078125 0.75
vt 0.6328125 0.75
vt 0.546875 0.59375
vt 0.6484375 0.59375
vt 0.6171875 0.9375
vt 0.5859375 0.9375
vt 0.6171875 0.78125
vt 0.5859375 0.78125
vt 0.6171875 0.9375
vt 0.6171875 0.78125
vt 0.6484375 0.9375
vt 0.6484375 0.78125
vt 0.0078125 0.9375
vt 0.1953125 0.03125
vt 0.0078125 0.03125
vt 0.0078125 0.03125
vt 0.1953125 0.03125
vt 0.0078125 0.9375
vt 0.2109375 0.21875
vt 0.2109375 0.46875
vt 0.1640625 0.21875
vt 0.1640625 0.46875
vn -0.018653340093973056 0.14922672075178456 0.9886270473323131
vn -0.018653340093973056 0.14922672075178456 0.9886270473323131
vn -0.018653340093973056 0.14922672075178456 0.9886270473323131
vn -0.018653340093973056 0.14922672075178434 -0.9886270473323131
vn -0.018653340093973056 0.14922672075178434 -0.9886270473323131
vn -0.018653340093973056 0.14922672075178434 -0.9886270473323131
vn -0.4472135954999579 0.8944271909999159 -1.0953573965284054e-16
vn -0.4472135954999579 0.8944271909999159 -1.0953573965284054e-16
vn -0.4472135954999579 0.8944271909999159 -1.0953573965284054e-16
vn -0.05635355905645973 0.07513807874194643 0.9955795023525944
vn -0.05635355905645973 0.07513807874194643 0.9955795023525944
vn -0.05635355905645973 0.07513807874194643 0.9955795023525944
vn -0.05635355905645973 0.07513807874194618 -0.9955795023525944
vn -0.05635355905645973 0.07513807874194618 -0.9955795023525944
vn -0.05635355905645973 0.07513807874194618 -0.9955795023525944
vn 0 1.2246467991473532e-16 1
vn 0 1.2246467991473532e-16 1
vn 0 1.2246467991473532e-16 1
vn 0 -1.2246467991473532e-16 -1
vn 0 -1.2246467991473532e-16 -1
vn 0 -1.2246467991473532e-16 -1
vn -0.038139272385296734 0.05085236566392263 0.9979776714978662
vn -0.04954860253512392 0.10170502743271456 0.9935799028672668
vn -0.04954860253512392 0.10170502743271456 0.9935799028672668
vn -0.06309635775830584 0.16252092601416993 0.9846856342229902
vn 0.08444307693694175 -0.9964283048756803 1.2202727341458249e-16
vn 0.08444307693694175 -0.9964283048756803 1.2202727341458249e-16
vn 0.08444307693694175 -0.9964283048756803 1.2202727341458249e-16
vn 0.08444307693694175 -0.9964283048756803 1.2202727341458249e-16
vn 0 -1.2246467991473532e-16 -1
vn 0 -1.2246467991473532e-16 -1
vn 0 -1.2246467991473532e-16 -1
vn 0 -1.2246467991473532e-16 -1
vn 0 1.2246467991473532e-16 1
vn 0 1.2246467991473532e-16 1
vn 0 1.2246467991473532e-16 1
vn 0 1.2246467991473532e-16 1
vn -0.9169092080980045 0.3724943657898143 0.14326706376531315
vn -0.9257419195969294 0.35180446834741946 0.13869215677817434
vn -0.9257419195969294 0.35180446834741946 0.13869215677817434
vn -0.9332282312180851 0.3331432558089735 0.13453861738014516
vn -0.9174501431807219 0.3736872726778961 -0.13653958040153902
vn -0.9257419195969294 0.35180446834741946 -0.13869215677817445
vn -0.9257419195969294 0.35180446834741946 -0.13869215677817445
vn -0.9326836502648235 0.3321886969463437 -0.1405413752237211
vn 0.12309149097933274 -0.9847319278346619 0.12309149097933286
vn 0.18296314368145444 -0.975803472704186 0.11971662671763832
vn 0.18296314368145444 -0.975803472704186 0.11971662671763832
vn 0.24089865192412074 -0.963594607696483 0.11598823871152782
vn 0.7658663407855428 0.6424897326363023 0.02560647396061646
vn 0.7658663407855428 0.6424897326363023 0.02560647396061646
vn 0.7658663407855428 0.6424897326363023 0.02560647396061646
vn 0.7658663407855428 0.6424897326363023 0.02560647396061646
vn 0.7658663407855428 0.6424897326363023 -0.02560647396061662
vn 0.7658663407855428 0.6424897326363023 -0.02560647396061662
vn 0.7658663407855428 0.6424897326363023 -0.02560647396061662
vn 0.7658663407855428 0.6424897326363023 -0.02560647396061662
vn 0.12334812429960226 -0.9867849943968181 -0.1050743311424902
vn 0.18296314368145444 -0.975803472704186 -0.11971662671763807
vn 0.18296314368145444 -0.975803472704186 -0.11971662671763807
vn 0.24036349105264765 -0.9614539642105906 -0.13353526452860356
vn -0.1275217387701098 0.9918357757920653 -1.2146485081035847e-16
vn -0.1275217387701098 0.9918357757920653 -1.2146485081035847e-16
vn -0.1275217387701098 0.9918357757920653 -1.2146485081035847e-16
vn -0.1275217387701098 0.9918357757920653 -1.2146485081035847e-16
vn 0 -1.2246467991473532e-16 -1
vn 0 -1.2246467991473532e-16 -1
vn 0 -1.2246467991473532e-16 -1
vn 0 -1.2246467991473532e-16 -1
vn -0.038433122387341895 0.999261174620309 -1.2237419990109857e-16
vn -0.038433122387341895 0.999261174620309 -1.2237419990109857e-16
vn -0.038433122387341895 0.999261174620309 -1.2237419990109857e-16
vn -0.038433122387341895 0.999261174620309 -1.2237419990109857e-16
vn 0 1.2246467991473532e-16 1
vn 0 1.2246467991473532e-16 1
vn 0 1.2246467991473532e-16 1
vn 0 1.2246467991473532e-16 1
vn -0.02573681580176192 0.13236076910922703 -0.9908674195437046
vn -0.01778558449506381 0.11351387910133975 -0.9933772054137014
vn -0.01778558449506381 0.11351387910133975 -0.9933772054137014
vn -0.0072792489921808924 0.0885641957610932 -0.9960438724088917
vn -0.018604450042928083 0.13488225722329322 0.9906869591979849
vn -0.01778558449506381 0.11351387910134 0.9933772054137014
vn -0.01778558449506381 0.11351387910134 0.9933772054137014
vn -0.01672202311503506 0.08599898027765497 0.9961548822016302
vn -0.7761139855306581 -0.6305926430459821 7.722532618721313e-17
vn -0.7761139855306581 -0.6305926430459821 7.722532618721313e-17
vn -0.7761139855306581 -0.6305926430459821 7.722532618721313e-17
vn -0.7761139855306581 -0.6305926430459821 7.722532618721313e-17
vn 1 0 0
vn 1 0 0
vn 1 0 0
vn 1 0 0
vn 0.8574929362310107 0.5144957378967482 -6.300755585902083e-17
vn 0.8574929362310107 0.5144957378967482 -6.300755585902083e-17
vn 0.8574929362310107 0.5144957378967482 -6.300755585902083e-17
vn 0.8574929362310107 0.5144957378967482 -6.300755585902083e-17
vn -0.2642581991784489 -0.15855492248730138 0.9513295647261306
vn -0.2524102282966071 -0.1548881054737622 0.9551433146046739
vn -0.2524102282966071 -0.1548881054737622 0.9551433146046739
vn -0.2432915000156829 -0.1520571875098017 0.9579602589600094
vn -0.36676501498574626 -0.22922813436609152 -0.9016306817081741
vn -0.35942625380121634 -0.22055703021522718 -0.9067344509287508
vn -0.35942625380121634 -0.22055703021522718 -0.9067344509287508
vn -0.3509312044196787 -0.2105587315925042 -0.9124211255307
vn -0.05861902238367593 0.12309995296618381 -0.9906615021259811
vn -0.03145023380329442 0.04380568040261623 -0.9985449139413721
vn -0.03145023380329442 0.04380568040261623 -0.9985449139413721
vn -0.014517311306711 -0.005443991740016747 -0.9998797980889296
vn 0.9417419062007517 0.336336412101596 -4.118933105169246e-17
vn 0.9417419062007517 0.336336412101596 -4.118933105169246e-17
vn 0.9417419062007517 0.336336412101596 -4.118933105169246e-17
vn 0.9417419062007517 0.336336412101596 -4.118933105169246e-17
vn -0.8479983006565124 0.5299989453609006 -6.490615119877e-17
vn -0.8479983006565124 0.5299989453609006 -6.490615119877e-17
vn -0.8479983006565124 0.5299989453609006 -6.490615119877e-17
vn -0.8479983006565124 0.5299989453609006 -6.490615119877e-17
vn -0.23599733091498826 0.9717537032607603 -1.190055062257877e-16
vn -0.23599733091498826 0.9717537032607603 -1.190055062257877e-16
vn -0.23599733091498826 0.9717537032607603 -1.190055062257877e-16
vn -0.23599733091498826 0.9717537032607603 -1.190055062257877e-16
vn 0.1520571898526434 -0.9883716967892783 1.210406234840828e-16
vn 0.1520571898526434 -0.9883716967892783 1.210406234840828e-16
vn 0.1520571898526434 -0.9883716967892783 1.210406234840828e-16
vn 0.1520571898526434 -0.9883716967892783 1.210406234840828e-16
vn 0.4472135954999579 -0.8944271909999159 1.0953573965284054e-16
vn 0.4472135954999579 -0.8944271909999159 1.0953573965284054e-16
vn 0.4472135954999579 -0.8944271909999159 1.0953573965284054e-16
vn 0.4472135954999579 -0.8944271909999159 1.0953573965284054e-16
vn -0.42993357692183704 0.9028605204765545 -1.1056852464781258e-16
vn -0.42993357692183704 0.9028605204765545 -1.1056852464781258e-16
vn -0.42993357692183704 0.9028605204765545 -1.1056852464781258e-16
vn -0.42993357692183704 0.9028605204765545 -1.1056852464781258e-16
vn -0.9363291751195385 -0.35112344812040747 4.3000220684623876e-17
vn -0.9363291751195385 -0.35112344812040747 4.3000220684623876e-17
vn -0.9363291751195385 -0.35112344812040747 4.3000220684623876e-17
vn -0.9363291751195385 -0.35112344812040747 4.3000220684623876e-17
vn -0.05832118478279632 0.11664236956559276 0.9914601338569569
vn -0.023560091166027943 0.06843645671095375 0.9973772473327724
vn -0.023560091166027943 0.06843645671095375 0.9973772473327724
vn 0.02019731928929578 0.007573994966316689 0.9997673243779156
vn -0.051533007068162835 0.06871067857441057 -0.9963047685484381
vn -0.04954860253512392 0.10170502743271431 -0.9935799028672668
vn -0.04954860253512392 0.10170502743271431 -0.9935799028672668
vn -0.04637999753407756 0.15239141621163732 -0.9872313569238725
vn 1 0 0
vn 1 0 0
vn 1 0 0
vn 1 0 0
vn 0 -1 1.2246467991473532e-16
vn 0 -1 1.2246467991473532e-16
vn 0 -1 1.2246467991473532e-16
vn 0 -1 1.2246467991473532e-16
vn 0 0 0
vn 0 0 0
vn 0 0 0
vn 0 0 0
vn 0 0 0
vn 0 0 0
vn 0 0 0
vn 0 0 0
vn 0 0 0
vn 0 0 0
f 3/3/3 2/2/2 1/1/1
f 6/6/6 5/5/5 4/4/4
f 9/9/9 8/8/8 7/7/7
f 12/12/12 11/11/11 10/10/10
f 15/15/15 14/14/14 13/13/13
f 18/18/18 17/17/17 16/16/16
f 21/21/21 20/20/20 19/19/19
f 24/24/24 23/23/23 22/22/22
f 23/23/23 24/24/24 25/25/25
f 28/28/28 27/27/27 26/26/26
f 27/27/27 28/28/28 29/29/29
f 32/32/32 31/31/31 30/30/30
f 31/31/31 32/32/32 33/33/33
f 36/36/36 35/35/35 34/34/34
f 35/35/35 36/36/36 37/37/37
f 40/40/40 39/39/39 38/38/38
f 39/39/39 40/40/40 41/41/41
f 44/44/44 43/43/43 42/42/42
f 43/43/43 44/44/44 45/45/45
f 48/48/48 47/47/47 46/46/46
f 47/47/47 48/48/48 49/49/49
f 52/52/52 51/51/51 50/50/50
f 51/51/51 52/52/52 53/53/53
f 56/56/56 55/55/55 54/54/54
f 55/55/55 56/56/56 57/57/57
f 60/60/60 59/59/59 58/58/58
f 59/59/59 60/60/60 61/61/61
f 64/64/64 63/63/63 62/62/62
f 63/63/63 64/64/64 65/65/65
f 68/68/68 67/67/67 66/66/66
f 67/67/67 68/68/68 69/69/69
f 72/72/72 71/71/71 70/70/70
f 71/71/71 72/72/72 73/73/73
f 76/76/76 75/75/75 74/74/74
f 75/75/75 76/76/76 77/77/77
f 80/80/80 79/79/79 78/78/78
f 79/79/79 80/80/80 81/81/81
f 84/84/84 83/83/83 82/82/82
f 83/83/83 84/84/84 85/85/85
f 88/88/88 87/87/87 86/86/86
f 87/87/87 88/88/88 89/89/89
f 92/92/92 91/91/91 90/90/90
f 91/91/91 92/92/92 93/93/93
f 96/96/96 95/95/95 94/94/94
f 95/95/95 96/96/96 97/97/97
f 100/100/100 99/99/99 98/98/98
f 99/99/99 100/100/100 101/101/101
f 104/104/104 103/103/103 102/102/102
f 103/103/103 104/104/104 105/105/105
f 108/108/108 107/107/107 106/106/106
f 107/107/107 108/108/108 109/109/109
f 112/112/112 111/111/111 110/110/110
f 111/111/111 112/112/112 113/113/113
f 116/116/116 115/115/115 114/114/114
f 115/115/115 116/116/116 117/117/117
f 120/120/120 119/119/119 118/118/118
f 119/119/119 120/120/120 121/121/121
f 124/124/124 123/123/123 122/122/122
f 123/123/123 124/124/124 125/125/125
f 128/128/128 127/127/127 126/126/126
f 127/127/127 128/128/128 129/129/129
f 132/132/132 131/131/131 130/130/130
f 131/131/131 132/132/132 133/133/133
f 136/136/136 135/135/135 134/134/134
f 135/135/135 136/136/136 137/137/137
f 140/140/140 139/139/139 138/138/138
f 139/139/139 140/140/140 141/141/141
f 144/144/144 143/143/143 142/142/142
f 143/143/143 144/144/144 145/145/145
f 148/148/148 147/147/147 146/146/146
f 147/147/147 148/148/148 149/149/149
f 152/152/152 151/151/151 150/150/150
f 151/151/151 152/152/152 153/153/153
f 156/156/156 155/155/155 154/154/154
f 154/154/154 155/155/155 156/156/156
f 159/159/159 158/158/158 157/157/157
f 157/157/157 158/158/158 159/159/159
f 162/162/162 161/161/161 160/160/160
f 161/161/161 162/162/162 163/163/163
f 160/160/160 161/161/161 162/162/162
f 163/163/163 162/162/162 161/161/161
