mtllib 58.WEP_posed.mtl
usemtl mat0
v 125 -8.000000000000004 -30
v 124 -3.0000000000000036 -30
v 120 -7.0000000000000036 -30
v 131 -24.000000000000004 -14.999999999999996
v 142 -13.000000000000002 -14.999999999999998
v 118 -18.000000000000004 -14.999999999999998
v 161 13.000000000000009 70
v 152 11.000000000000009 70
v 155 19.000000000000007 69
v 161 12.999999999999991 -70
v 155 18.999999999999993 -69
v 152 10.999999999999991 -70
v 187 -9.797174393178826e-16 -8
v 198 5.999999999999998 -14
v 173 5.999999999999999 -8
v 173 6.000000000000001 6.999999999999999
v 198 6.000000000000002 13
v 187 8.572527594031472e-16 7
v 99 -4.999999999999999 7.000000000000001
v 67 7.347880794884119e-16 6
v 99 16 -1.959434878635765e-15
v 173 5.999999999999999 -8
v 173 6.000000000000001 6.999999999999999
v 172 28 -3.429011037612589e-15
v 99 16 -1.959434878635765e-15
v 67 -8.572527594031472e-16 -7
v 99 -5.000000000000001 -7.999999999999999
v 99 16 -1.959434878635765e-15
v 67 7.347880794884119e-16 6
v 67 -8.572527594031472e-16 -7
v -18 14 -1.7145055188062944e-15
v 7 -17 4.000000000000002
v 7 -17 -4.999999999999998
v 15 -6.123233995736766e-16 -5
v 15 4.898587196589413e-16 4
v -9 20 -2.4492935982947065e-15
v 99 -4.999999999999999 7.000000000000001
v 173 6.000000000000001 6.999999999999999
v 187 -19 7.000000000000003
v 173 6.000000000000001 6.999999999999999
v 187 8.572527594031472e-16 7
v 187 -19 7.000000000000003
v 124 -3.0000000000000018 -15
v 120 -7.000000000000002 -15
v 124 -3.0000000000000036 -30
v 120 -7.0000000000000036 -30
v 142 -13.000000000000002 -14.999999999999998
v 131 -24.000000000000004 -14.999999999999996
v 142 -13.000000000000002 -7.999999999999998
v 131 -24 -7.999999999999997
v 131 -24.000000000000004 -14.999999999999996
v 118 -18.000000000000004 -14.999999999999998
v 131 -24 -7.999999999999997
v 118 -18 -7.999999999999998
v 134 -1.83697019872103e-15 -15
v 142 -13.000000000000002 -14.999999999999998
v 134 -9.797174393178826e-16 -8
v 142 -13.000000000000002 -7.999999999999998
v 118 -18.000000000000004 -14.999999999999998
v 120 -3.0000000000000018 -15
v 118 -18 -7.999999999999998
v 120 -3.000000000000001 -8
v 120 -3.0000000000000018 -15
v 134 -1.83697019872103e-15 -15
v 120 -3.000000000000001 -8
v 134 -9.797174393178826e-16 -8
v 152 10.999999999999991 -70
v 155 18.999999999999993 -69
v 158 5.999999999999999 -8
v 161 14 -5.000000000000002
v 155 19.000000000000007 69
v 152 11.000000000000009 70
v 161 14 4.999999999999998
v 158 6.000000000000001 6.999999999999999
v 161 13.000000000000009 70
v 155 19.000000000000007 69
v 169 6.000000000000001 6.999999999999999
v 161 14 4.999999999999998
v 155 18.999999999999993 -69
v 161 12.999999999999991 -70
v 161 14 -5.000000000000002
v 169 5.999999999999999 -8
v 67 7.347880794884119e-16 6
v 15 4.898587196589413e-16 4
v 67 -8.572527594031472e-16 -7
v 15 -6.123233995736766e-16 -5
v 198 5.999999999999998 -14
v 198 6.000000000000002 13
v 173 5.999999999999999 -8
v 173 6.000000000000001 6.999999999999999
v 82 -23 7.000000000000003
v 89 -33 7.000000000000004
v 82 -23 -7.999999999999997
v 89 -33 -7.999999999999996
v 187 -9.797174393178826e-16 -8
v 187 -19 -7.999999999999997
v 187 8.572527594031472e-16 7
v 187 -19 7.000000000000003
v 15 4.898587196589413e-16 4
v 7 -17 4.000000000000002
v -9 20 -2.4492935982947065e-15
v -18 14 -1.7145055188062944e-15
v 67 -8.572527594031472e-16 -7
v 15 -6.123233995736766e-16 -5
v 99 -5.000000000000001 -7.999999999999999
v 7 -17 -4.999999999999998
v -9 20 -2.4492935982947065e-15
v -18 14 -1.7145055188062944e-15
v 15 -6.123233995736766e-16 -5
v 7 -17 -4.999999999999998
v 172 28 -3.429011037612589e-15
v 99 16 -1.959434878635765e-15
v 173 5.999999999999999 -8
v 99 -5.000000000000001 -7.999999999999999
v 99 -5.000000000000001 -7.999999999999999
v 7 -17 -4.999999999999998
v 99 -4.999999999999999 7.000000000000001
v 7 -17 4.000000000000002
v 99 -4.999999999999999 7.000000000000001
v 7 -17 4.000000000000002
v 67 7.347880794884119e-16 6
v 15 4.898587196589413e-16 4
v 99 -5.000000000000001 -7.999999999999999
v 99 -4.999999999999999 7.000000000000001
v 82 -23 -7.999999999999997
v 82 -23 7.000000000000003
v 187 8.572527594031472e-16 7
v 198 6.000000000000002 13
v 187 -9.797174393178826e-16 -8
v 198 5.999999999999998 -14
v 99 16 -1.959434878635765e-15
v 172 28 -3.429011037612589e-15
v 99 -4.999999999999999 7.000000000000001
v 173 6.000000000000001 6.999999999999999
v 158 5.999999999999999 -8
v 152 10.999999999999991 -70
v 99 -5.000000000000001 -7.999999999999999
v 99 -4.999999999999999 7.000000000000001
v 152 11.000000000000009 70
v 158 6.000000000000001 6.999999999999999
v 120 -7.000000000000002 -15
v 125 -8.000000000000002 -14.999999999999998
v 120 -7.0000000000000036 -30
v 125 -8.000000000000004 -30
v 125 -8.000000000000002 -14.999999999999998
v 124 -3.0000000000000018 -15
v 125 -8.000000000000004 -30
v 124 -3.0000000000000036 -30
v 120 -3.0000000000000018 -15
v 118 -18.000000000000004 -14.999999999999998
v 134 -1.83697019872103e-15 -15
v 142 -13.000000000000002 -14.999999999999998
v 152 11.000000000000009 70
v 161 13.000000000000009 70
v 158 6.000000000000001 6.999999999999999
v 169 6.000000000000001 6.999999999999999
v 161 12.999999999999991 -70
v 152 10.999999999999991 -70
v 169 5.999999999999999 -8
v 158 5.999999999999999 -8
v 187 -19 -7.999999999999997
v 187 -9.797174393178826e-16 -8
v 173 5.999999999999999 -8
v 187 -19 -7.999999999999997
v 173 5.999999999999999 -8
v 99 -5.000000000000001 -7.999999999999999
v 187 -19 7.000000000000003
v 187 -19 -7.999999999999997
v 89 -33 7.000000000000004
v 89 -33 -7.999999999999996
v 99 -5.000000000000001 -7.999999999999999
v 82 -23 -7.999999999999997
v 187 -19 -7.999999999999997
v 82 -23 -7.999999999999997
v 89 -33 -7.999999999999996
v 187 -19 -7.999999999999997
v 187 -19 7.000000000000003
v 89 -33 7.000000000000004
v 82 -23 7.000000000000003
v 187 -19 7.000000000000003
v 82 -23 7.000000000000003
v 99 -4.999999999999999 7.000000000000001
v 187 -31 7.0000000000000036
v 187 -19 7.000000000000003
v 187 -31 -7.9999999999999964
v 187 -19 -7.999999999999997
vt 0.1171875 0.5625
vt 0.1171875 0.71875
vt 0.0859375 0.625
vt 0.15625 0.34375
vt 0.1875 0.4375
vt 0.125 0.4375
vt 0.15625 0.28125
vt 0.1953125 0.28125
vt 0.1953125 0.40625
vt 0.15625 0.28125
vt 0.1953125 0.40625
vt 0.1953125 0.28125
vt 0.203125 0.5625
vt 0.1796875 0.625
vt 0.234375 0.625
vt 0.234375 0.625
vt 0.1796875 0.625
vt 0.203125 0.5625
vt 0.375 0.625
vt 0.453125 0.71875
vt 0.359375 0.875
vt 0.0625 0.75
vt 0.109375 0.75
vt 0.0859375 0.9375
vt 0.359375 0.875
vt 0.453125 0.71875
vt 0.375 0.625
vt 0.75 0.15625
vt 0.8359375 0.03125
vt 0.8359375 0.28125
vt 0.71875 0.9375
vt 0.6953125 0.59375
vt 0.7421875 0.59375
vt 0.90625 0.28125
vt 0.90625 0.03125
vt 0.984375 0.15625
vt 0.375 0.625
vt 0.234375 0.625
vt 0.203125 0.375
vt 0.234375 0.625
vt 0.203125 0.5625
vt 0.203125 0.375
vt 0.2265625 0.84375
vt 0.2265625 0.9375
vt 0.203125 0.84375
vt 0.203125 0.9375
vt 0.671875 0.40625
vt 0.7421875 0.40625
vt 0.671875 0.53125
vt 0.7421875 0.53125
vt 0.7421875 0.40625
vt 0.671875 0.40625
vt 0.7421875 0.53125
vt 0.671875 0.53125
vt 0.6171875 0.40625
vt 0.671875 0.40625
vt 0.6171875 0.53125
vt 0.671875 0.53125
vt 0.671875 0.40625
vt 0.6171875 0.40625
vt 0.671875 0.53125
vt 0.6171875 0.53125
vt 0.6171875 0.53125
vt 0.5625 0.53125
vt 0.6171875 0.40625
vt 0.5625 0.40625
vt 0.984375 0.9375
vt 0.984375 0.75
vt 0.75 0.9375
vt 0.75 0.75
vt 0.984375 0.75
vt 0.984375 0.9375
vt 0.75 0.75
vt 0.75 0.9375
vt 0.984375 0.53125
vt 0.984375 0.75
vt 0.75 0.53125
vt 0.75 0.75
vt 0.984375 0.75
vt 0.984375 0.53125
vt 0.75 0.75
vt 0.75 0.53125
vt 0.8359375 0.03125
vt 0.90625 0.03125
vt 0.8359375 0.28125
vt 0.90625 0.28125
vt 0.4140625 0.78125
vt 0.484375 0.78125
vt 0.4296875 0.9375
vt 0.46875 0.9375
vt 0.4375 0.375
vt 0.3984375 0.375
vt 0.4375 0.03125
vt 0.3984375 0.03125
vt 0.125 0.9375
vt 0.125 0.65625
vt 0.1953125 0.9375
vt 0.1953125 0.65625
vt 0.640625 0.59375
vt 0.6953125 0.59375
vt 0.6484375 0.9375
vt 0.6953125 0.9375
vt 0.453125 0.71875
vt 0.609375 0.84375
vt 0.375 0.625
vt 0.6328125 0.625
vt 0.6484375 0.9375
vt 0.6953125 0.9375
vt 0.640625 0.59375
vt 0.6953125 0.59375
vt 0.234375 0.875
vt 0.359375 0.875
vt 0.234375 0.625
vt 0.375 0.625
vt 0.5234375 0.03125
vt 0.7421875 0.03125
vt 0.5234375 0.375
vt 0.7421875 0.375
vt 0.375 0.625
vt 0.6328125 0.625
vt 0.453125 0.71875
vt 0.609375 0.84375
vt 0.515625 0.03125
vt 0.515625 0.375
vt 0.4375 0.03125
vt 0.4375 0.375
vt 0.4765625 0.4375
vt 0.4921875 0.59375
vt 0.4296875 0.4375
vt 0.4140625 0.59375
vt 0.359375 0.875
vt 0.234375 0.875
vt 0.375 0.625
vt 0.234375 0.625
vt 0.0078125 0.9375
vt 0.1953125 0.03125
vt 0.0078125 0.03125
vt 0.0078125 0.03125
vt 0.1953125 0.03125
vt 0.0078125 0.9375
vt 0.2265625 0.65625
vt 0.2265625 0.75
vt 0.203125 0.65625
vt 0.203125 0.75
vt 0.2265625 0.75
vt 0.2265625 0.84375
vt 0.203125 0.75
vt 0.203125 0.84375
vt 0.140625 0.625
vt 0.125 0.4375
vt 0.171875 0.625
vt 0.1875 0.4375
vt 0.984375 0.3125
vt 0.984375 0.53125
vt 0.75 0.3125
vt 0.75 0.53125
vt 0.984375 0.53125
vt 0.984375 0.3125
vt 0.75 0.53125
vt 0.75 0.3125
vt 0.203125 0.375
vt 0.203125 0.5625
vt 0.234375 0.625
vt 0.203125 0.375
vt 0.234375 0.625
vt 0.375 0.625
vt 0.203125 0.375
vt 0.203125 0.03125
vt 0.3984375 0.375
vt 0.3984375 0.03125
vt 0.375 0.625
vt 0.4140625 0.46875
vt 0.203125 0.375
vt 0.4140625 0.46875
vt 0.3984375 0.375
vt 0.203125 0.375
vt 0.203125 0.375
vt 0.3984375 0.375
vt 0.4140625 0.46875
vt 0.203125 0.375
vt 0.4140625 0.46875
vt 0.375 0.625
vt 0.546875 0.40625
vt 0.546875 0.59375
vt 0.5 0.40625
vt 0.5 0.59375
vn 0 -1.2246467991473532e-16 -1
vn 0 -1.2246467991473532e-16 -1
vn 0 -1.2246467991473532e-16 -1
vn 0 -1.2246467991473532e-16 -1
vn 0 -1.2246467991473532e-16 -1
vn 0 -1.2246467991473532e-16 -1
vn -0.030011631112135652 0.1350523362793203 0.990383849052218
vn -0.030011631112135652 0.1350523362793203 0.990383849052218
vn -0.030011631112135652 0.1350523362793203 0.990383849052218
vn -0.030011631112135652 0.1350523362793201 -0.990383849052218
vn -0.030011631112135652 0.1350523362793201 -0.990383849052218
vn -0.030011631112135652 0.1350523362793201 -0.990383849052218
vn -0.20495609401895074 -0.47823088107716494 -0.8539837374965954
vn -0.20495609401895074 -0.47823088107716494 -0.8539837374965954
vn -0.20495609401895074 -0.47823088107716494 -0.8539837374965954
vn -0.2049560940189507 -0.4782308810771646 0.8539837374965954
vn -0.2049560940189507 -0.4782308810771646 0.8539837374965954
vn -0.2049560940189507 -0.4782308810771646 0.8539837374965954
vn 0.019760375745805744 0.316166011932892 0.9484980656009979
vn 0.019760375745805744 0.316166011932892 0.9484980656009979
vn 0.019760375745805744 0.316166011932892 0.9484980656009979
vn 0.9989685402410237 0.04540766024272102 -5.560834577301883e-18
vn 0.9989685402410237 0.04540766024272102 -5.560834577301883e-18
vn 0.9989685402410237 0.04540766024272102 -5.560834577301883e-18
vn 0.026412310036838766 0.35587114039231293 -0.9341617211780799
vn 0.026412310036838766 0.35587114039231293 -0.9341617211780799
vn 0.026412310036838766 0.35587114039231293 -0.9341617211780799
vn -0.4472135954999579 0.8944271909999159 -1.0953573965284054e-16
vn -0.4472135954999579 0.8944271909999159 -1.0953573965284054e-16
vn -0.4472135954999579 0.8944271909999159 -1.0953573965284054e-16
vn -0.7784130601452878 -0.6277524255590324 7.687749986178561e-17
vn -0.7784130601452878 -0.6277524255590324 7.687749986178561e-17
vn -0.7784130601452878 -0.6277524255590324 7.687749986178561e-17
vn 0.6401844113899838 0.7682212698261223 -9.407997191294758e-17
vn 0.6401844113899838 0.7682212698261223 -9.407997191294758e-17
vn 0.6401844113899838 0.7682212698261223 -9.407997191294758e-17
vn 0 1.2246467991473532e-16 1
vn 0 1.2246467991473532e-16 1
vn 0 1.2246467991473532e-16 1
vn 0 1.2246467991473532e-16 1
vn 0 1.2246467991473532e-16 1
vn 0 1.2246467991473532e-16 1
vn -0.7071067811865476 0.7071067811865476 -8.659560562354933e-17
vn -0.7071067811865476 0.7071067811865476 -8.659560562354933e-17
vn -0.7071067811865476 0.7071067811865476 -8.659560562354933e-17
vn -0.7071067811865476 0.7071067811865476 -8.659560562354933e-17
vn 0.7071067811865476 -0.7071067811865476 8.659560562354933e-17
vn 0.7071067811865476 -0.7071067811865476 8.659560562354933e-17
vn 0.7071067811865476 -0.7071067811865476 8.659560562354933e-17
vn 0.7071067811865476 -0.7071067811865476 8.659560562354933e-17
vn -0.41905816801223017 -0.907959388861767 1.1119295593253498e-16
vn -0.41905816801223017 -0.907959388861767 1.1119295593253498e-16
vn -0.41905816801223017 -0.907959388861767 1.1119295593253498e-16
vn -0.41905816801223017 -0.907959388861767 1.1119295593253498e-16
vn 0.8516583167045437 0.5240974256643346 -6.418342347811952e-17
vn 0.8516583167045437 0.5240974256643346 -6.418342347811952e-17
vn 0.8516583167045437 0.5240974256643346 -6.418342347811952e-17
vn 0.8516583167045437 0.5240974256643346 -6.418342347811952e-17
vn -0.9912279013333404 0.13216371521072512 -1.6185387079623687e-17
vn -0.9912279013333404 0.13216371521072512 -1.6185387079623687e-17
vn -0.9912279013333404 0.13216371521072512 -1.6185387079623687e-17
vn -0.9912279013333404 0.13216371521072512 -1.6185387079623687e-17
vn -0.209529090766154 0.9778024136412777 -1.197462596064347e-16
vn -0.209529090766154 0.9778024136412777 -1.197462596064347e-16
vn -0.209529090766154 0.9778024136412777 -1.197462596064347e-16
vn -0.209529090766154 0.9778024136412777 -1.197462596064347e-16
vn -0.9345811454933289 0.33577763493480134 0.1175221781876448
vn -0.9392237212839855 0.3234292020874296 0.11511886298322827
vn -0.9392237212839855 0.3234292020874296 0.11511886298322827
vn -0.9435206585253354 0.31152295846937633 0.1127927891418799
vn -0.9348317603280025 0.33632246446137554 -0.11391566960113395
vn -0.9370381097967666 0.3299173962127585 -0.11451677809254172
vn -0.9370381097967666 0.3299173962127585 -0.11451677809254172
vn -0.9392237212839855 0.3234292020874296 -0.11511886298322835
vn 0.7061462901997636 0.7079804443037547 0.011004877126496357
vn 0.7058964258275026 0.7082312589351338 0.010895864862989083
vn 0.7058964258275026 0.7082312589351338 0.010895864862989083
vn 0.705712207739963 0.7084160532735863 0.010815512519654765
vn 0.7061565947730701 0.7079719137914972 -0.0108918749950147
vn 0.7055056349411314 0.7086204545800724 -0.010901853835131741
vn 0.7055056349411314 0.7086204545800724 -0.010901853835131741
vn 0.7050162610904339 0.7091072259177359 -0.010909342295397017
vn 0 1 -1.2246467991473532e-16
vn 0 1 -1.2246467991473532e-16
vn 0 1 -1.2246467991473532e-16
vn 0 1 -1.2246467991473532e-16
vn 0 1 -1.2246467991473532e-16
vn 0 1 -1.2246467991473532e-16
vn 0 1 -1.2246467991473532e-16
vn 0 1 -1.2246467991473532e-16
vn -0.819231912118386 -0.5734623563642632 7.022888391529938e-17
vn -0.819231912118386 -0.5734623563642632 7.022888391529938e-17
vn -0.819231912118386 -0.5734623563642632 7.022888391529938e-17
vn -0.819231912118386 -0.5734623563642632 7.022888391529938e-17
vn 1 0 0
vn 1 0 0
vn 1 0 0
vn 1 0 0
vn -0.11868394738336104 0.05585126869947174 0.9913600538745561
vn -0.09167526706470674 0.06775997611708913 0.9934808659683518
vn -0.09167526706470674 0.06775997611708913 0.9934808659683518
vn -0.05566168412172655 0.08349252990788013 0.9949526493106668
vn -0.03839231353838091 -0.04607077773617336 -0.9982001370967422
vn -0.03527810152486073 0.006939954787656519 -0.9993534372684906
vn -0.03527810152486073 0.006939954787656519 -0.9993534372684906
vn -0.03471556290231659 0.016336735264308257 -0.9992636993172919
vn -0.09132896225220077 0.13699343592772056 -0.9863527863633039
vn -0.11417751824102221 0.08439207869988585 -0.9898694213789176
vn -0.11417751824102221 0.08439207869988585 -0.9898694213789176
vn -0.12508741215473318 0.05886466520080791 -0.9903979455305978
vn -0.05572177518033046 0.33897415097346184 -0.9391440830578518
vn -0.05430962816733303 0.3471093726767803 -0.9362507931576122
vn -0.05430962816733303 0.3471093726767803 -0.9362507931576122
vn -0.05284428457164483 0.35549791710036704 -0.9331820361137539
vn 0.12933919043815306 -0.991600410355302 1.2143602685748227e-16
vn 0.12933919043815306 -0.991600410355302 1.2143602685748227e-16
vn 0.12933919043815306 -0.991600410355302 1.2143602685748227e-16
vn 0.12933919043815306 -0.991600410355302 1.2143602685748227e-16
vn -0.03197380453614891 -0.004736860172735193 0.9994774824773133
vn -0.03527810152486073 0.0069399547876567635 0.9993534372684906
vn -0.03527810152486073 0.0069399547876567635 0.9993534372684906
vn -0.03842683943493933 0.018083218776753358 0.9990977806049384
vn -0.727013170732637 0.6866235137113188 -8.408712882858753e-17
vn -0.727013170732637 0.6866235137113188 -8.408712882858753e-17
vn -0.727013170732637 0.6866235137113188 -8.408712882858753e-17
vn -0.727013170732637 0.6866235137113188 -8.408712882858753e-17
vn 0.47885211606414774 -0.8778955808869798 1.0751120131188461e-16
vn 0.47885211606414774 -0.8778955808869798 1.0751120131188461e-16
vn 0.47885211606414774 -0.8778955808869798 1.0751120131188461e-16
vn 0.47885211606414774 -0.8778955808869798 1.0751120131188461e-16
vn -0.05191255250884096 0.31580137537572844 0.947404126127185
vn -0.04822359955445118 0.3082116827117675 0.9500947547934326
vn -0.04822359955445118 0.3082116827117675 0.9500947547934326
vn -0.04475100429135291 0.3010521890128666 0.9525570466410275
vn 0.1824259261255351 -0.9784663649032355 -0.09656269585243238
vn 0.1824259261255351 -0.9784663649032355 -0.09656269585243238
vn 0.1824259261255351 -0.9784663649032355 -0.09656269585243238
vn 0.18245272798756768 -0.9786100634497042 0.0950439149281024
vn 0.18245272798756768 -0.9786100634497042 0.0950439149281024
vn 0.18245272798756768 -0.9786100634497042 0.0950439149281024
vn -0.19611613227257615 -0.9805806762640418 1.2008649864925056e-16
vn -0.19611613227257615 -0.9805806762640418 1.2008649864925056e-16
vn -0.19611613227257615 -0.9805806762640418 1.2008649864925056e-16
vn -0.19611613227257615 -0.9805806762640418 1.2008649864925056e-16
vn 0.9805806762640418 0.19611613227257615 -2.4017299364876933e-17
vn 0.9805806762640418 0.19611613227257615 -2.4017299364876933e-17
vn 0.9805806762640418 0.19611613227257615 -2.4017299364876933e-17
vn 0.9805806762640418 0.19611613227257615 -2.4017299364876933e-17
vn 0 -1.2246467991473532e-16 -1
vn 0 -1.2246467991473532e-16 -1
vn 0 -1.2246467991473532e-16 -1
vn 0 -1.2246467991473532e-16 -1
vn 0.21589337718327187 -0.9715201451706582 0.09766604945417147
vn 0.09895122653904484 -0.9895122504892875 0.1052338391300259
vn 0.09895122653904484 -0.9895122504892875 0.1052338391300259
vn 0 -0.9938837342193152 0.11043153016357994
vn 0.21488790308140857 -0.9669955415145967 -0.1369043892655279
vn 0.09893341602119157 -0.9893341304095926 -0.10691191515015118
vn 0.09893341602119157 -0.9893341304095926 -0.10691191515015118
vn 0 -0.9967639551466451 -0.08038418824879175
vn 0 -1.2246467991473532e-16 -1
vn 0 -1.2246467991473532e-16 -1
vn 0 -1.2246467991473532e-16 -1
vn 0 -1.2246467991473532e-16 -1
vn 0 -1.2246467991473532e-16 -1
vn 0 -1.2246467991473532e-16 -1
vn 0.1414213666681226 -0.9899494921710502 1.2123384769048244e-16
vn 0.1414213666681226 -0.9899494921710502 1.2123384769048244e-16
vn 0.1414213666681226 -0.9899494921710502 1.2123384769048244e-16
vn 0.1414213666681226 -0.9899494921710502 1.2123384769048244e-16
vn 0 -1.2246467991473532e-16 -1
vn 0 -1.2246467991473532e-16 -1
vn 0 -1.2246467991473532e-16 -1
vn 0 -1.2246467991473532e-16 -1
vn 0 -1.2246467991473532e-16 -1
vn 0 -1.2246467991473532e-16 -1
vn 0 1.2246467991473532e-16 1
vn 0 1.2246467991473532e-16 1
vn 0 1.2246467991473532e-16 1
vn 0 1.2246467991473532e-16 1
vn 0 1.2246467991473532e-16 1
vn 0 1.2246467991473532e-16 1
vn 0 0 0
vn 0 0 0
vn 0 0 0
vn 0 0 0
f 3/3/3 2/2/2 1/1/1
f 6/6/6 5/5/5 4/4/4
f 9/9/9 8/8/8 7/7/7
f 12/12/12 11/11/11 10/10/10
f 15/15/15 14/14/14 13/13/13
f 18/18/18 17/17/17 16/16/16
f 21/21/21 20/20/20 19/19/19
f 24/24/24 23/23/23 22/22/22
f 27/27/27 26/26/26 25/25/25
f 30/30/30 29/29/29 28/28/28
f 33/33/33 32/32/32 31/31/31
f 36/36/36 35/35/35 34/34/34
f 39/39/39 38/38/38 37/37/37
f 42/42/42 41/41/41 40/40/40
f 45/45/45 44/44/44 43/43/43
f 44/44/44 45/45/45 46/46/46
f 49/49/49 48/48/48 47/47/47
f 48/48/48 49/49/49 50/50/50
f 53/53/53 52/52/52 51/51/51
f 52/52/52 53/53/53 54/54/54
f 57/57/57 56/56/56 55/55/55
f 56/56/56 57/57/57 58/58/58
f 61/61/61 60/60/60 59/59/59
f 60/60/60 61/61/61 62/62/62
f 65/65/65 64/64/64 63/63/63
f 64/64/64 65/65/65 66/66/66
f 69/69/69 68/68/68 67/67/67
f 68/68/68 69/69/69 70/70/70
f 73/73/73 72/72/72 71/71/71
f 72/72/72 73/73/73 74/74/74
f 77/77/77 76/76/76 75/75/75
f 76/76/76 77/77/77 78/78/78
f 81/81/81 80/80/80 79/79/79
f 80/80/80 81/81/81 82/82/82
f 85/85/85 84/84/84 83/83/83
f 84/84/84 85/85/85 86/86/86
f 89/89/89 88/88/88 87/87/87
f 88/88/88 89/89/89 90/90/90
f 93/93/93 92/92/92 91/91/91
f 92/92/92 93/93/93 94/94/94
f 97/97/97 96/96/96 95/95/95
f 96/96/96 97/97/97 98/98/98
f 101/101/101 100/100/100 99/99/99
f 100/100/100 101/101/101 102/102/102
f 105/105/105 104/104/104 103/103/103
f 104/104/104 105/105/105 106/106/106
f 109/109/109 108/108/108 107/107/107
f 108/108/108 109/109/109 110/110/110
f 113/113/113 112/112/112 111/111/111
f 112/112/112 113/113/113 114/114/114
f 117/117/117 116/116/116 115/115/115
f 116/116/116 117/117/117 118/118/118
f 121/121/121 120/120/120 119/119/119
f 120/120/120 121/121/121 122/122/122
f 125/125/125 124/124/124 123/123/123
f 124/124/124 125/125/125 126/126/126
f 129/129/129 128/128/128 127/127/127
f 128/128/128 129/129/129 130/130/130
f 133/133/133 132/132/132 131/131/131
f 132/132/132 133/133/133 134/134/134
f 137/137/137 136/136/136 135/135/135
f 140/140/140 139/139/139 138/138/138
f 143/143/143 142/142/142 141/141/141
f 142/142/142 143/143/143 144/144/144
f 147/147/147 146/146/146 145/145/145
f 146/146/146 147/147/147 148/148/148
f 151/151/151 150/150/150 149/149/149
f 150/150/150 151/151/151 152/152/152
f 155/155/155 154/154/154 153/153/153
f 154/154/154 155/155/155 156/156/156
f 159/159/159 158/158/158 157/157/157
f 158/158/158 159/159/159 160/160/160
f 163/163/163 162/162/162 161/161/161
f 166/166/166 165/165/165 164/164/164
f 169/169/169 168/168/168 167/167/167
f 168/168/168 169/169/169 170/170/170
f 173/173/173 172/172/172 171/171/171
f 176/176/176 175/175/175 174/174/174
f 179/179/179 178/178/178 177/177/177
f 182/182/182 181/181/181 180/180/180
f 185/185/185 184/184/184 183/183/183
f 184/184/184 185/185/185 186/186/186
f 183/183/183 184/184/184 185/185/185
f 186/186/186 185/185/185 184/184/184
