mtllib 64.WEP_posed.mtl
usemtl mat0
v 24 27 -3.3065463576978537e-15
v 57 27 -3.3065463576978537e-15
v 57 19.999999999999996 -33
v 57 21.000000000000004 35
v 57 27 -3.3065463576978537e-15
v 24 27 -3.3065463576978537e-15
v -27 27 -3.3065463576978537e-15
v -83 27 -3.3065463576978537e-15
v -83 21.000000000000004 35
v -27 27 -3.3065463576978537e-15
v -84 19.999999999999996 -33
v -83 27 -3.3065463576978537e-15
v 57 19.999999999999996 -33
v 57 34 -25.000000000000004
v 57 28.999999999999996 -34
v -84 19.999999999999996 -33
v -84 28.999999999999996 -34
v -84 34 -25.000000000000004
v -84 5.000000000000008 64
v -83 20.000000000000007 60
v -84 13.000000000000009 67
v 57 5.000000000000008 64
v 57 13.000000000000009 67
v 57 20.000000000000007 60
v -27 -12 1.4695761589768238e-15
v 24 -12 1.4695761589768238e-15
v -27 27 -3.3065463576978537e-15
v 24 27 -3.3065463576978537e-15
v 24 -12 1.4695761589768238e-15
v -27 -12 1.4695761589768238e-15
v 24 27 -3.3065463576978537e-15
v -27 27 -3.3065463576978537e-15
v 57 19.999999999999996 -33
v -84 19.999999999999996 -33
v 24 27 -3.3065463576978537e-15
v -27 27 -3.3065463576978537e-15
v 24 27 -3.3065463576978537e-15
v -27 27 -3.3065463576978537e-15
v 57 21.000000000000004 35
v -83 21.000000000000004 35
v -84 19.999999999999996 -33
v -84 34 -25.000000000000004
v -83 27 -3.3065463576978537e-15
v -83 36 -4.408728476930472e-15
v 57 27 -3.3065463576978537e-15
v 57 36 -4.408728476930472e-15
v 57 19.999999999999996 -33
v 57 34 -25.000000000000004
v 57 19.999999999999996 -33
v 57 28.999999999999996 -34
v -84 19.999999999999996 -33
v -84 28.999999999999996 -34
v 57 5.000000000000008 64
v 57 20.000000000000007 60
v 57 21.000000000000004 35
v 57 29.000000000000004 37
v -83 21.000000000000004 35
v -83 29.000000000000004 37
v -84 5.000000000000008 64
v -83 20.000000000000007 60
v -84 5.000000000000008 64
v -84 13.000000000000009 67
v 57 5.000000000000008 64
v 57 13.000000000000009 67
v 57 21.000000000000004 35
v 57 29.000000000000004 37
v 57 27 -3.3065463576978537e-15
v 57 36 -4.408728476930472e-15
v -83 27 -3.3065463576978537e-15
v -83 36 -4.408728476930472e-15
v -83 21.000000000000004 35
v -83 29.000000000000004 37
v -83 20.000000000000007 60
v 57 20.000000000000007 60
v -84 13.000000000000009 67
v 57 13.000000000000009 67
v 57 20.000000000000007 60
v -83 20.000000000000007 60
v 57 29.000000000000004 37
v -83 29.000000000000004 37
v -83 21.000000000000004 35
v -84 5.000000000000008 64
v 57 21.000000000000004 35
v 57 5.000000000000008 64
v 57 34 -25.000000000000004
v -84 34 -25.000000000000004
v 57 28.999999999999996 -34
v -84 28.999999999999996 -34
v 57 29.000000000000004 37
v -83 29.000000000000004 37
v 57 36 -4.408728476930472e-15
v -83 36 -4.408728476930472e-15
v -84 34 -25.000000000000004
v 57 34 -25.000000000000004
v -83 36 -4.408728476930472e-15
v 57 36 -4.408728476930472e-15
vt 0.140625 0.125
vt 0.140625 0.03125
vt 0.203125 0.03125
vt 0.0625 0.03125
vt 0.140625 0.03125
vt 0.140625 0.125
vt 0.140625 0.25
vt 0.140625 0.40625
vt 0.0625 0.40625
vt 0.140625 0.25
vt 0.203125 0.40625
vt 0.140625 0.40625
vt 0.265625 0.53125
vt 0.234375 0.4375
vt 0.265625 0.4375
vt 0.234375 0.5625
vt 0.265625 0.5625
vt 0.265625 0.65625
vt 0.046875 0.5625
vt 0.015625 0.65625
vt 0.015625 0.5625
vt 0.015625 0.53125
vt 0.015625 0.4375
vt 0.046875 0.4375
vt 0.140625 0.6875
vt 0.015625 0.6875
vt 0.140625 0.8125
vt 0.015625 0.8125
vt 0.015625 0.6875
vt 0.140625 0.6875
vt 0.015625 0.8125
vt 0.140625 0.8125
vt 0.203125 0.03125
vt 0.203125 0.40625
vt 0.140625 0.125
vt 0.140625 0.25
vt 0.140625 0.125
vt 0.140625 0.25
vt 0.0625 0.03125
vt 0.0625 0.40625
vt 0.234375 0.5625
vt 0.265625 0.65625
vt 0.1875 0.5625
vt 0.1875 0.65625
vt 0.1875 0.53125
vt 0.1875 0.4375
vt 0.265625 0.53125
vt 0.234375 0.4375
vt 0.96875 0.03125
vt 0.90625 0.03125
vt 0.96875 0.9375
vt 0.90625 0.9375
vt 0.015625 0.53125
vt 0.046875 0.4375
vt 0.09375 0.53125
vt 0.09375 0.4375
vt 0.09375 0.5625
vt 0.09375 0.65625
vt 0.046875 0.5625
vt 0.015625 0.65625
vt 0.96875 0.9375
vt 0.90625 0.9375
vt 0.96875 0.03125
vt 0.90625 0.03125
vt 0.09375 0.53125
vt 0.09375 0.4375
vt 0.1875 0.53125
vt 0.1875 0.4375
vt 0.1875 0.5625
vt 0.1875 0.65625
vt 0.09375 0.5625
vt 0.09375 0.65625
vt 0.84375 0.9375
vt 0.84375 0.03125
vt 0.890625 0.9375
vt 0.890625 0.03125
vt 0.84375 0.03125
vt 0.84375 0.9375
vt 0.6875 0.03125
vt 0.6875 0.9375
vt 0.0625 0.40625
vt 0.015625 0.40625
vt 0.0625 0.03125
vt 0.015625 0.03125
vt 0.328125 0.03125
vt 0.328125 0.9375
vt 0.28125 0.03125
vt 0.28125 0.9375
vt 0.6875 0.03125
vt 0.6875 0.9375
vt 0.484375 0.03125
vt 0.484375 0.9375
vt 0.328125 0.9375
vt 0.328125 0.03125
vt 0.484375 0.9375
vt 0.484375 0.03125
vn 0 -0.9782341236358945 0.20750421526878324
vn 0 -0.9782341236358945 0.20750421526878324
vn 0 -0.9782341236358945 0.20750421526878324
vn 0 -0.9856222532534306 -0.16896382420988956
vn 0 -0.9856222532534306 -0.16896382420988956
vn 0 -0.9856222532534306 -0.16896382420988956
vn 0 -0.9856222532534306 -0.16896382420988956
vn 0 -0.9856222532534306 -0.16896382420988956
vn 0 -0.9856222532534306 -0.16896382420988956
vn 0 -0.9782341236358945 0.20750421526878324
vn 0 -0.9782341236358945 0.20750421526878324
vn 0 -0.9782341236358945 0.20750421526878324
vn 1 0 0
vn 1 0 0
vn 1 0 0
vn -1 0 0
vn -1 0 0
vn -1 0 0
vn -0.9939000886829468 0.03872338046559951 -0.10326235287531928
vn -0.9939000886829468 0.03872338046559951 -0.10326235287531928
vn -0.9939000886829468 0.03872338046559951 -0.10326235287531928
vn 1 0 0
vn 1 0 0
vn 1 0 0
vn 0 -1.2246467991473532e-16 -1
vn 0 -1.2246467991473532e-16 -1
vn 0 -1.2246467991473532e-16 -1
vn 0 -1.2246467991473532e-16 -1
vn 0 1.2246467991473532e-16 1
vn 0 1.2246467991473532e-16 1
vn 0 1.2246467991473532e-16 1
vn 0 1.2246467991473532e-16 1
vn 0 -0.9782341236358945 0.20750421526878324
vn 0 -0.9782341236358945 0.20750421526878324
vn 0 -0.9782341236358945 0.20750421526878324
vn 0 -0.9782341236358945 0.20750421526878324
vn 0 -0.9856222532534306 -0.16896382420988956
vn 0 -0.9856222532534306 -0.16896382420988956
vn 0 -0.9856222532534306 -0.16896382420988956
vn 0 -0.9856222532534306 -0.16896382420988956
vn -0.9992122691431062 -0.019688911817360426 0.034455593817735594
vn -0.9992561570455779 -0.012668857642702988 0.036422968749569545
vn -0.9992561570455779 -0.012668857642702988 0.036422968749569545
vn -0.9992009586325253 4.894673296507052e-18 0.039968040580475234
vn 1 0 0
vn 1 0 0
vn 1 0 0
vn 1 0 0
vn 0 -0.11043153016357994 -0.9938837342193152
vn 0 -0.11043153016357994 -0.9938837342193152
vn 0 -0.11043153016357994 -0.9938837342193152
vn 0 -0.11043153016357994 -0.9938837342193152
vn 1 0 0
vn 1 0 0
vn 1 0 0
vn 1 0 0
vn -0.9995125238271544 0.0075720644192277115 -0.03028825767691086
vn -0.9990480489028526 0.043588485336849093 0.0017435393436247655
vn -0.9990480489028526 0.043588485336849093 0.0017435393436247655
vn -0.9968208718599373 0.07419702446413606 0.029033618187590395
vn 0 -0.35112344812040736 0.9363291751195385
vn 0 -0.35112344812040736 0.9363291751195385
vn 0 -0.35112344812040736 0.9363291751195385
vn 0 -0.35112344812040736 0.9363291751195385
vn 1 0 0
vn 1 0 0
vn 1 0 0
vn 1 0 0
vn -1 0 0
vn -1 0 0
vn -1 0 0
vn -1 0 0
vn 0 0.7071067811865477 0.7071067811865475
vn 0 0.7071067811865477 0.7071067811865475
vn 0 0.7071067811865477 0.7071067811865475
vn 0 0.7071067811865477 0.7071067811865475
vn 0 0.931242779266047 0.36439934970420623
vn 0 0.931242779266047 0.36439934970420623
vn 0 0.931242779266047 0.36439934970420623
vn 0 0.931242779266047 0.36439934970420623
vn 0 -0.8755776831574467 -0.4830773444870271
vn 0 -0.8755776831574467 -0.4830773444870271
vn 0 -0.8755776831574467 -0.4830773444870271
vn 0 -0.8755776831574467 -0.4830773444870271
vn 0 0.874157266281148 -0.4856429488913335
vn 0 0.874157266281148 -0.4856429488913335
vn 0 0.874157266281148 -0.4856429488913335
vn 0 0.874157266281148 -0.4856429488913335
vn 0 0.9825702442994271 0.18589167549237978
vn 0 0.9825702442994271 0.18589167549237978
vn 0 0.9825702442994271 0.18589167549237978
vn 0 0.9825702442994271 0.18589167549237978
vn 0 0.9968152781807713 -0.07974522672481026
vn 0 0.9968152781807713 -0.07974522672481026
vn 0 0.9968152781807713 -0.07974522672481026
vn 0 0.9968152781807713 -0.07974522672481026
f 3/3/3 2/2/2 1/1/1
f 6/6/6 5/5/5 4/4/4
f 9/9/9 8/8/8 7/7/7
f 12/12/12 11/11/11 10/10/10
f 15/15/15 14/14/14 13/13/13
f 18/18/18 17/17/17 16/16/16
f 21/21/21 20/20/20 19/19/19
f 24/24/24 23/23/23 22/22/22
f 27/27/27 26/26/26 25/25/25
f 26/26/26 27/27/27 28/28/28
f 31/31/31 30/30/30 29/29/29
f 30/30/30 31/31/31 32/32/32
f 35/35/35 34/34/34 33/33/33
f 34/34/34 35/35/35 36/36/36
f 39/39/39 38/38/38 37/37/37
f 38/38/38 39/39/39 40/40/40
f 43/43/43 42/42/42 41/41/41
f 42/42/42 43/43/43 44/44/44
f 47/47/47 46/46/46 45/45/45
f 46/46/46 47/47/47 48/48/48
f 51/51/51 50/50/50 49/49/49
f 50/50/50 51/51/51 52/52/52
f 55/55/55 54/54/54 53/53/53
f 54/54/54 55/55/55 56/56/56
f 59/59/59 58/58/58 57/57/57
f 58/58/58 59/59/59 60/60/60
f 63/63/63 62/62/62 61/61/61
f 62/62/62 63/63/63 64/64/64
f 67/67/67 66/66/66 65/65/65
f 66/66/66 67/67/67 68/68/68
f 71/71/71 70/70/70 69/69/69
f 70/70/70 71/71/71 72/72/72
f 75/75/75 74/74/74 73/73/73
f 74/74/74 75/75/75 76/76/76
f 79/79/79 78/78/78 77/77/77
f 78/78/78 79/79/79 80/80/80
f 83/83/83 82/82/82 81/81/81
f 82/82/82 83/83/83 84/84/84
f 87/87/87 86/86/86 85/85/85
f 86/86/86 87/87/87 88/88/88
f 91/91/91 90/90/90 89/89/89
f 90/90/90 91/91/91 92/92/92
f 95/95/95 94/94/94 93/93/93
f 94/94/94 95/95/95 96/96/96
