mtllib 1A.WEP_posed.mtl
usemtl mat0
v 54 -17 2.0818995585505003e-15
v 49 -8.572527594031472e-16 -7
v 41 -23 -8.999999999999996
v 41 -23 -8.999999999999996
v 41 -23 8.000000000000004
v 56 -49 6.000769315822031e-15
v 54 16 -1.959434878635765e-15
v 49 7.347880794884119e-16 6
v 41 23 7.999999999999997
v 41 -23 -8.999999999999996
v 49 -8.572527594031472e-16 -7
v 41 23 -9.000000000000004
v 41 -23 8.000000000000004
v 41 23 7.999999999999997
v 49 7.347880794884119e-16 6
v 41 23 -9.000000000000004
v 49 -8.572527594031472e-16 -7
v 54 16 -1.959434878635765e-15
v 307 -6.123233995736766e-16 -5
v 381 0 0
v 307 13 -1.592040838891559e-15
v 307 6.123233995736766e-16 5
v 381 0 0
v 307 -14 1.7145055188062944e-15
v 307 -14 1.7145055188062944e-15
v 381 0 0
v 307 -6.123233995736766e-16 -5
v 307 13 -1.592040838891559e-15
v 381 0 0
v 307 6.123233995736766e-16 5
v 56 49 -6.000769315822031e-15
v 54 16 -1.959434878635765e-15
v 41 23 7.999999999999997
v 41 -23 8.000000000000004
v 49 7.347880794884119e-16 6
v 54 -17 2.0818995585505003e-15
v -124 0 0
v -97 -9.797174393178826e-16 -8
v -97 8 -9.797174393178826e-16
v 41 -23 8.000000000000004
v 54 -17 2.0818995585505003e-15
v 56 -49 6.000769315822031e-15
v 41 23 -9.000000000000004
v 54 16 -1.959434878635765e-15
v 56 49 -6.000769315822031e-15
v 56 49 -6.000769315822031e-15
v 41 23 7.999999999999997
v 41 23 -9.000000000000004
v 56 -49 6.000769315822031e-15
v 54 -17 2.0818995585505003e-15
v 41 -23 -8.999999999999996
v -124 0 0
v -97 8.572527594031472e-16 7
v -97 -10 1.2246467991473533e-15
v -97 -10 1.2246467991473533e-15
v -97 -9.797174393178826e-16 -8
v -124 0 0
v -97 8 -9.797174393178826e-16
v -97 8.572527594031472e-16 7
v -124 0 0
v 307 -6.123233995736766e-16 -5
v 307 13 -1.592040838891559e-15
v 49 -8.572527594031472e-16 -7
v 54 16 -1.959434878635765e-15
v 54 -17 2.0818995585505003e-15
v 49 7.347880794884119e-16 6
v 307 -14 1.7145055188062944e-15
v 307 6.123233995736766e-16 5
v 20 5 -6.123233995736766e-16
v -30 5 -6.123233995736766e-16
v 20 -6.123233995736766e-16 -5
v -30 -6.123233995736766e-16 -5
v -44 -2.326828918379971e-15 -19
v -30 -6.123233995736766e-16 -5
v -44 21 -2.5717582782094417e-15
v -30 5 -6.123233995736766e-16
v 20 6.123233995736766e-16 5
v -30 6.123233995736766e-16 5
v 20 5 -6.123233995736766e-16
v -30 5 -6.123233995736766e-16
v -44 21 -2.5717582782094417e-15
v -30 5 -6.123233995736766e-16
v -44 2.326828918379971e-15 19
v -30 6.123233995736766e-16 5
v 20 -6.123233995736766e-16 -5
v -30 -6.123233995736766e-16 -5
v 20 -7 8.572527594031472e-16
v -30 -6 7.347880794884119e-16
v -44 -22 2.6942229581241772e-15
v -30 -6 7.347880794884119e-16
v -44 -2.326828918379971e-15 -19
v -30 -6.123233995736766e-16 -5
v -44 2.326828918379971e-15 19
v -30 6.123233995736766e-16 5
v -44 -22 2.6942229581241772e-15
v -30 -6 7.347880794884119e-16
v 20 -7 8.572527594031472e-16
v -30 -6 7.347880794884119e-16
v 20 6.123233995736766e-16 5
v -30 6.123233995736766e-16 5
v 41 23 7.999999999999997
v 41 -23 8.000000000000004
v 41 23 -9.000000000000004
v 41 -23 -8.999999999999996
v 307 -6.123233995736766e-16 -5
v 49 -8.572527594031472e-16 -7
v 307 -14 1.7145055188062944e-15
v 54 -17 2.0818995585505003e-15
v 49 7.347880794884119e-16 6
v 54 16 -1.959434878635765e-15
v 307 6.123233995736766e-16 5
v 307 13 -1.592040838891559e-15
v -97 8 -9.797174393178826e-16
v -97 -9.797174393178826e-16 -8
v -82 4 -4.898587196589413e-16
v -82 -4.898587196589413e-16 -4
v -97 8.572527594031472e-16 7
v -97 8 -9.797174393178826e-16
v -82 4.898587196589413e-16 4
v -82 4 -4.898587196589413e-16
v -97 -9.797174393178826e-16 -8
v -97 -10 1.2246467991473533e-15
v -82 -4.898587196589413e-16 -4
v -82 -5 6.123233995736766e-16
v -97 -10 1.2246467991473533e-15
v -97 8.572527594031472e-16 7
v -82 -5 6.123233995736766e-16
v -82 4.898587196589413e-16 4
v -44 -6 7.347880794884119e-16
v -82 -5 6.123233995736766e-16
v -44 4.898587196589413e-16 4
v -82 4.898587196589413e-16 4
v -44 4.898587196589413e-16 4
v -82 4.898587196589413e-16 4
v -44 5 -6.123233995736766e-16
v -82 4 -4.898587196589413e-16
v -44 5 -6.123233995736766e-16
v -82 4 -4.898587196589413e-16
v -44 -6.123233995736766e-16 -5
v -82 -4.898587196589413e-16 -4
v -44 -6.123233995736766e-16 -5
v -82 -4.898587196589413e-16 -4
v -44 -6 7.347880794884119e-16
v -82 -5 6.123233995736766e-16
v 20 3.3065463576978537e-15 27
v 41 6.123233995736766e-16 5
v 20 -31 3.796405077356795e-15
v 41 -7 8.572527594031472e-16
v 20 30 -3.67394039744206e-15
v 41 6 -7.347880794884119e-16
v 20 3.3065463576978537e-15 27
v 41 6.123233995736766e-16 5
v 20 -3.3065463576978537e-15 -27
v 41 -7.347880794884119e-16 -6
v 20 30 -3.67394039744206e-15
v 41 6 -7.347880794884119e-16
v 20 -31 3.796405077356795e-15
v 41 -7 8.572527594031472e-16
v 20 -3.3065463576978537e-15 -27
v 41 -7.347880794884119e-16 -6
v 20 -31 3.796405077356795e-15
v 20 -3.3065463576978537e-15 -27
v 20 3.3065463576978537e-15 27
v 20 30 -3.67394039744206e-15
v -44 -22 2.6942229581241772e-15
v -44 -2.326828918379971e-15 -19
v -44 2.326828918379971e-15 19
v -44 21 -2.5717582782094417e-15
vt 0.1640625 0.6875
vt 0.1171875 0.6875
vt 0.1640625 0.9375
vt 0.3359375 0.9375
vt 0.3359375 0.6875
vt 0.3984375 0.8125
vt 0.0703125 0.6875
vt 0.1171875 0.6875
vt 0.0703125 0.9375
vt 0.1640625 0.9375
vt 0.1171875 0.6875
vt 0.0703125 0.9375
vt 0.1640625 0.9375
vt 0.0703125 0.9375
vt 0.1171875 0.6875
vt 0.0703125 0.9375
vt 0.1171875 0.6875
vt 0.0703125 0.6875
vt 0.21875 0.34375
vt 0.0078125 0.34375
vt 0.21875 0.65625
vt 0.21875 0.34375
vt 0.0078125 0.34375
vt 0.21875 0.03125
vt 0.21875 0.03125
vt 0.0078125 0.34375
vt 0.21875 0.34375
vt 0.21875 0.65625
vt 0.0078125 0.34375
vt 0.21875 0.34375
vt 0.0078125 0.6875
vt 0.0703125 0.6875
vt 0.0703125 0.9375
vt 0.1640625 0.9375
vt 0.1171875 0.6875
vt 0.1640625 0.6875
vt 0.984375 0.8125
vt 0.90625 0.8125
vt 0.90625 0.9375
vt 0.1640625 0.9375
vt 0.1640625 0.6875
vt 0.2265625 0.6875
vt 0.0703125 0.9375
vt 0.0703125 0.6875
vt 0.0078125 0.6875
vt 0.2109375 0.8125
vt 0.2734375 0.6875
vt 0.2734375 0.9375
vt 0.2265625 0.6875
vt 0.1640625 0.6875
vt 0.1640625 0.9375
vt 0.984375 0.8125
vt 0.90625 0.8125
vt 0.90625 0.6875
vt 0.90625 0.6875
vt 0.90625 0.8125
vt 0.984375 0.8125
vt 0.90625 0.9375
vt 0.90625 0.8125
vt 0.984375 0.8125
vt 0.21875 0.34375
vt 0.21875 0.65625
vt 0.984375 0.34375
vt 0.96875 0.65625
vt 0.96875 0.03125
vt 0.984375 0.34375
vt 0.21875 0.03125
vt 0.21875 0.34375
vt 0.609375 0.9375
vt 0.7421875 0.9375
vt 0.609375 0.8125
vt 0.7421875 0.8125
vt 0.5546875 0.6875
vt 0.5546875 0.9375
vt 0.6015625 0.6875
vt 0.5703125 0.9375
vt 0.609375 0.8125
vt 0.7421875 0.8125
vt 0.609375 0.9375
vt 0.7421875 0.9375
vt 0.6015625 0.6875
vt 0.5703125 0.9375
vt 0.5546875 0.6875
vt 0.5546875 0.9375
vt 0.609375 0.8125
vt 0.7421875 0.8125
vt 0.609375 0.6875
vt 0.7421875 0.6875
vt 0.5078125 0.6875
vt 0.5390625 0.9375
vt 0.5546875 0.6875
vt 0.5546875 0.9375
vt 0.5546875 0.6875
vt 0.5546875 0.9375
vt 0.5078125 0.6875
vt 0.5390625 0.9375
vt 0.609375 0.6875
vt 0.7421875 0.6875
vt 0.609375 0.8125
vt 0.7421875 0.8125
vt 0.2734375 0.6875
vt 0.3359375 0.6875
vt 0.2734375 0.9375
vt 0.3359375 0.9375
vt 0.21875 0.34375
vt 0.984375 0.34375
vt 0.21875 0.03125
vt 0.96875 0.03125
vt 0.984375 0.34375
vt 0.96875 0.65625
vt 0.21875 0.34375
vt 0.21875 0.65625
vt 0.90625 0.9375
vt 0.90625 0.8125
vt 0.8671875 0.875
vt 0.8671875 0.8125
vt 0.90625 0.8125
vt 0.90625 0.9375
vt 0.8671875 0.8125
vt 0.8671875 0.875
vt 0.90625 0.8125
vt 0.90625 0.6875
vt 0.8671875 0.8125
vt 0.8671875 0.75
vt 0.90625 0.6875
vt 0.90625 0.8125
vt 0.8671875 0.75
vt 0.8671875 0.8125
vt 0.75 0.6875
vt 0.859375 0.6875
vt 0.75 0.8125
vt 0.859375 0.8125
vt 0.75 0.8125
vt 0.859375 0.8125
vt 0.75 0.9375
vt 0.859375 0.9375
vt 0.75 0.9375
vt 0.859375 0.9375
vt 0.75 0.8125
vt 0.859375 0.8125
vt 0.75 0.8125
vt 0.859375 0.8125
vt 0.75 0.6875
vt 0.859375 0.6875
vt 0.4609375 0.9375
vt 0.4609375 0.6875
vt 0.53125 0.9375
vt 0.484375 0.6875
vt 0.390625 0.9375
vt 0.4375 0.6875
vt 0.4609375 0.9375
vt 0.4609375 0.6875
vt 0.4609375 0.9375
vt 0.4609375 0.6875
vt 0.390625 0.9375
vt 0.4375 0.6875
vt 0.53125 0.9375
vt 0.484375 0.6875
vt 0.4609375 0.9375
vt 0.4609375 0.6875
vt 0.0390625 0.03125
vt 0.0703125 0.125
vt 0.0078125 0.125
vt 0.0390625 0.25
vt 0.0390625 0.46875
vt 0.0703125 0.5625
vt 0.0078125 0.5625
vt 0.0390625 0.65625
vn 0.6071791263873264 -0.14323200783308015 -0.7815485272275978
vn 0.6071791263873264 -0.14323200783308015 -0.7815485272275978
vn 0.6071791263873264 -0.14323200783308015 -0.7815485272275978
vn -0.8661855920024494 -0.49972244316957226 6.119834904897117e-17
vn -0.8661855920024494 -0.49972244316957226 6.119834904897117e-17
vn -0.8661855920024494 -0.49972244316957226 6.119834904897117e-17
vn 0.5685873080490347 0.1270959835248462 0.8127453993086668
vn 0.5685873080490347 0.1270959835248462 0.8127453993086668
vn 0.5685873080490347 0.1270959835248462 0.8127453993086668
vn 0.24253562503633297 -1.1880819075197915e-16 -0.9701425001453319
vn 0.24253562503633297 -1.1880819075197915e-16 -0.9701425001453319
vn 0.24253562503633297 -1.1880819075197915e-16 -0.9701425001453319
vn 0.24253562503633297 1.1880819075197915e-16 0.9701425001453319
vn 0.24253562503633297 1.1880819075197915e-16 0.9701425001453319
vn 0.24253562503633297 1.1880819075197915e-16 0.9701425001453319
vn 0.6152177430628669 0.14663220888602232 -0.7746006222162737
vn 0.6152177430628669 0.14663220888602232 -0.7746006222162737
vn 0.6152177430628669 0.14663220888602232 -0.7746006222162737
vn 0.06293886205876789 0.3582673697884603 -0.931495137608139
vn 0.06293886205876789 0.3582673697884603 -0.931495137608139
vn 0.06293886205876789 0.3582673697884603 -0.931495137608139
vn 0.06350278125484504 -0.3356575676406416 0.9398411536310098
vn 0.06350278125484504 -0.3356575676406416 0.9398411536310098
vn 0.06350278125484504 -0.3356575676406416 0.9398411536310098
vn 0.06350278125484504 -0.3356575676406418 -0.9398411536310098
vn 0.06350278125484504 -0.3356575676406418 -0.9398411536310098
vn 0.06350278125484504 -0.3356575676406418 -0.9398411536310098
vn 0.06293886205876789 0.3582673697884605 0.931495137608139
vn 0.06293886205876789 0.3582673697884605 0.931495137608139
vn 0.06293886205876789 0.3582673697884605 0.931495137608139
vn 0.5116807765357945 -0.03101095525058374 0.858615806736734
vn 0.5116807765357945 -0.03101095525058374 0.858615806736734
vn 0.5116807765357945 -0.03101095525058374 0.858615806736734
vn 0.5609156486994847 -0.12392321968786658 0.8185454603540533
vn 0.5609156486994847 -0.12392321968786658 0.8185454603540533
vn 0.5609156486994847 -0.12392321968786658 0.8185454603540533
vn -0.2050608158567856 0.6920802199890376 -0.6920802199890378
vn -0.2050608158567856 0.6920802199890376 -0.6920802199890378
vn -0.2050608158567856 0.6920802199890376 -0.6920802199890378
vn 0.5130518209655329 0.03206573881034591 0.8577584843057499
vn 0.5130518209655329 0.03206573881034591 0.8577584843057499
vn 0.5130518209655329 0.03206573881034591 0.8577584843057499
vn 0.556544837176293 -0.0337299926154235 -0.8301325989325904
vn 0.556544837176293 -0.0337299926154235 -0.8301325989325904
vn 0.556544837176293 -0.0337299926154235 -0.8301325989325904
vn -0.8661855920024494 0.49972244316957226 -6.119834904897117e-17
vn -0.8661855920024494 0.49972244316957226 -6.119834904897117e-17
vn -0.8661855920024494 0.49972244316957226 -6.119834904897117e-17
vn 0.5579342266943905 0.034870889168399304 -0.8291522295522927
vn 0.5579342266943905 0.034870889168399304 -0.8291522295522927
vn 0.5579342266943905 0.034870889168399304 -0.8291522295522927
vn -0.20775903326428435 -0.5609494330269342 0.8013562988358243
vn -0.20775903326428435 -0.5609494330269342 0.8013562988358243
vn -0.20775903326428435 -0.5609494330269342 0.8013562988358243
vn -0.22541382246045472 -0.6086173474653173 -0.7607716694304856
vn -0.22541382246045472 -0.6086173474653173 -0.7607716694304856
vn -0.22541382246045472 -0.6086173474653173 -0.7607716694304856
vn -0.19150139588073553 0.6463172502130311 0.7386482433830028
vn -0.19150139588073553 0.6463172502130311 0.7386482433830028
vn -0.19150139588073553 0.6463172502130311 0.7386482433830028
vn 0.007235047857386129 0.35896968763540216 -0.933321175931117
vn 0.0058574621715023565 0.38148281682041474 -0.9243573716954236
vn 0.0058574621715023565 0.38148281682041474 -0.9243573716954236
vn 0.004737998281507525 0.3995712036187363 -0.9166899173717135
vn 0.0039342498505884945 -0.3317883995649037 0.9433456310347089
vn 0.0038046991519574847 -0.3338623432501037 0.9426141628598166
vn 0.0038046991519574847 -0.3338623432501037 0.9426141628598166
vn 0.0036501381827635866 -0.33633417150366773 0.9417356325265537
vn 0 0.7071067811865475 -0.7071067811865477
vn 0 0.7071067811865475 -0.7071067811865477
vn 0 0.7071067811865475 -0.7071067811865477
vn 0 0.7071067811865475 -0.7071067811865477
vn 0.595639824631806 0.5389122364775016 -0.5956398246318061
vn 0.6025459114197598 0.5413246700392169 -0.5864350145056687
vn 0.6025459114197598 0.5413246700392169 -0.5864350145056687
vn 0.6285393765077646 0.5499719320925524 -0.5499719320925526
vn 0 0.7071067811865477 0.7071067811865475
vn 0 0.7071067811865477 0.7071067811865475
vn 0 0.7071067811865477 0.7071067811865475
vn 0 0.7071067811865477 0.7071067811865475
vn 0.6084772349311853 0.5324175954659485 0.5884615183754642
vn 0.6025459114197598 0.5413246700392171 0.5864350145056685
vn 0.6025459114197598 0.5413246700392171 0.5864350145056685
vn 0.5773502691896257 0.5773502691896258 0.5773502691896256
vn 0 -0.5812382106339281 -0.8137334591247123
vn -0.00609699441961552 -0.6096994196098106 -0.7926092633741467
vn -0.00609699441961552 -0.6096994196098106 -0.7926092633741467
vn -0.012802638911402753 -0.6401319437074926 -0.7681583086071332
vn 0.5984576356594353 -0.5236504684549091 -0.6063321245059284
vn 0.6007717916847942 -0.5202559888531468 -0.6069653699992089
vn 0.6007717916847942 -0.5202559888531468 -0.6069653699992089
vn 0.6092076960077669 -0.5076730899405801 -0.6092076960077668
vn 0.6034762721831414 -0.5211840153188488 0.6034762721831415
vn 0.6007717916847942 -0.5202559888531466 0.6069653699992091
vn 0.6007717916847942 -0.5202559888531466 0.6069653699992091
vn 0.5904742379185064 -0.5166649730798539 0.6199979676958249
vn -0.011623978496961555 -0.5811989248480777 0.8136784947873089
vn -0.006096994419615518 -0.6096994196098102 0.7926092633741467
vn -0.006096994419615518 -0.6096994196098102 0.7926092633741467
vn 0 -0.6401844113899837 0.7682212698261224
vn -1 0 0
vn -1 0 0
vn -1 0 0
vn -1 0 0
vn 0.007300130749145446 -0.336327442426149 -0.9417168149513583
vn 0.005765691345062214 -0.36017921226429667 -0.9328653128163703
vn 0.005765691345062214 -0.36017921226429667 -0.9328653128163703
vn 0.004501347775258638 -0.3796136575683121 -0.925134157220354
vn 0.0036306028391808174 0.3501262469844152 0.9366954840798756
vn 0.00390880737280921 0.35406228546866214 0.9352136757092625
vn 0.00390880737280921 0.35406228546866214 0.9352136757092625
vn 0.004256630309818095 0.3589758271408315 0.9333371505661615
vn 0.18529641417041406 0.6948615829413747 -0.6948615829413749
vn 0.18529641417041406 0.6948615829413747 -0.6948615829413749
vn 0.18529641417041406 0.6948615829413747 -0.6948615829413749
vn 0.18529641417041406 0.6948615829413747 -0.6948615829413749
vn 0.1488388185274806 0.6511698385083083 0.7441940926374029
vn 0.1616574071868532 0.6668367953325438 0.7274582950879365
vn 0.1616574071868532 0.6668367953325438 0.7274582950879365
vn 0.18529641417041406 0.6948615829413749 0.6948615829413747
vn 0.2038588791295349 -0.6115766075862828 -0.7644708041863363
vn 0.2038588791295349 -0.6115766075862828 -0.7644708041863363
vn 0.2038588791295349 -0.6115766075862828 -0.7644708041863363
vn 0.2038588791295349 -0.6115766075862828 -0.7644708041863363
vn 0.18775461790418668 -0.563263898416044 0.8046626524182748
vn 0.1763912617196124 -0.5820911621846047 0.7937606702876752
vn 0.1763912617196124 -0.5820911621846047 0.7937606702876752
vn 0.15430335528393505 -0.6172134211357401 0.7715167317161923
vn -0.014595818887724158 -0.5546411344973244 0.8319616421413414
vn -0.007738869543484511 -0.5881540704036617 0.8087118766073571
vn -0.007738869543484511 -0.5881540704036617 0.8087118766073571
vn 0 -0.6246950475544241 0.7808688094430304
vn 0 0.6246950475544243 0.7808688094430302
vn -0.008741296013994461 0.6643384784371275 0.747380743538284
vn -0.008741296013994461 0.6643384784371275 0.747380743538284
vn -0.018604852014198172 0.7069843914406916 0.7069843914406914
vn -0.018604852014198172 0.7069843914406914 -0.7069843914406916
vn -0.018604852014198172 0.7069843914406914 -0.7069843914406916
vn -0.018604852014198172 0.7069843914406914 -0.7069843914406916
vn -0.018604852014198172 0.7069843914406914 -0.7069843914406916
vn -0.020212220202411292 -0.6400536353968522 -0.7680643267134353
vn -0.01851255189082274 -0.6331292742936088 -0.7738246619583391
vn -0.01851255189082274 -0.6331292742936088 -0.7738246619583391
vn -0.016437122326043798 -0.6246106521149546 -0.780763315143693
vn 0.6198939755945797 -0.5153663816727305 0.5917169523201985
vn 0.6094689355621009 -0.5106772172992649 0.6064292178946189
vn 0.6094689355621009 -0.5106772172992649 0.6064292178946189
vn 0.5533186171303214 -0.4841538048901923 0.6778153149253405
vn 0.6073625204629057 0.5314421756027197 0.5904913062252438
vn 0.6106584837412175 0.5261057761097856 0.5918690130246702
vn 0.6106584837412175 0.5261057761097856 0.5918690130246702
vn 0.6269740450613578 0.49872934725282503 0.5984752167033899
vn 0.5965499900899847 0.5368949791600571 -0.5965499900899848
vn 0.602401007545012 0.5393590832237737 -0.5883917108973961
vn 0.602401007545012 0.5393590832237737 -0.5883917108973961
vn 0.6285393765077646 0.5499719320925524 -0.5499719320925526
vn 0.6003104506157745 -0.5252715995853188 -0.6030896364144936
vn 0.6011218888946419 -0.5239968181566017 -0.6033902628096471
vn 0.6011218888946419 -0.5239968181566017 -0.6033902628096471
vn 0.6047079032446815 -0.5183210428941141 -0.6047079032446814
vn -1 0 0
vn -1 0 0
vn -1 0 0
vn -1 0 0
vn -1 0 0
vn -1 0 0
vn -1 0 0
vn -1 0 0
f 3/3/3 2/2/2 1/1/1
f 6/6/6 5/5/5 4/4/4
f 9/9/9 8/8/8 7/7/7
f 12/12/12 11/11/11 10/10/10
f 15/15/15 14/14/14 13/13/13
f 18/18/18 17/17/17 16/16/16
f 21/21/21 20/20/20 19/19/19
f 24/24/24 23/23/23 22/22/22
f 27/27/27 26/26/26 25/25/25
f 30/30/30 29/29/29 28/28/28
f 33/33/33 32/32/32 31/31/31
f 36/36/36 35/35/35 34/34/34
f 39/39/39 38/38/38 37/37/37
f 42/42/42 41/41/41 40/40/40
f 45/45/45 44/44/44 43/43/43
f 48/48/48 47/47/47 46/46/46
f 51/51/51 50/50/50 49/49/49
f 54/54/54 53/53/53 52/52/52
f 57/57/57 56/56/56 55/55/55
f 60/60/60 59/59/59 58/58/58
f 63/63/63 62/62/62 61/61/61
f 62/62/62 63/63/63 64/64/64
f 67/67/67 66/66/66 65/65/65
f 66/66/66 67/67/67 68/68/68
f 71/71/71 70/70/70 69/69/69
f 70/70/70 71/71/71 72/72/72
f 75/75/75 74/74/74 73/73/73
f 74/74/74 75/75/75 76/76/76
f 79/79/79 78/78/78 77/77/77
f 78/78/78 79/79/79 80/80/80
f 83/83/83 82/82/82 81/81/81
f 82/82/82 83/83/83 84/84/84
f 87/87/87 86/86/86 85/85/85
f 86/86/86 87/87/87 88/88/88
f 91/91/91 90/90/90 89/89/89
f 90/90/90 91/91/91 92/92/92
f 95/95/95 94/94/94 93/93/93
f 94/94/94 95/95/95 96/96/96
f 99/99/99 98/98/98 97/97/97
f 98/98/98 99/99/99 100/100/100
f 103/103/103 102/102/102 101/101/101
f 102/102/102 103/103/103 104/104/104
f 107/107/107 106/106/106 105/105/105
f 106/106/106 107/107/107 108/108/108
f 111/111/111 110/110/110 109/109/109
f 110/110/110 111/111/111 112/112/112
f 115/115/115 114/114/114 113/113/113
f 114/114/114 115/115/115 116/116/116
f 119/119/119 118/118/118 117/117/117
f 118/118/118 119/119/119 120/120/120
f 123/123/123 122/122/122 121/121/121
f 122/122/122 123/123/123 124/124/124
f 127/127/127 126/126/126 125/125/125
f 126/126/126 127/127/127 128/128/128
f 131/131/131 130/130/130 129/129/129
f 130/130/130 131/131/131 132/132/132
f 135/135/135 134/134/134 133/133/133
f 134/134/134 135/135/135 136/136/136
f 139/139/139 138/138/138 137/137/137
f 138/138/138 139/139/139 140/140/140
f 143/143/143 142/142/142 141/141/141
f 142/142/142 143/143/143 144/144/144
f 147/147/147 146/146/146 145/145/145
f 146/146/146 147/147/147 148/148/148
f 151/151/151 150/150/150 149/149/149
f 150/150/150 151/151/151 152/152/152
f 155/155/155 154/154/154 153/153/153
f 154/154/154 155/155/155 156/156/156
f 159/159/159 158/158/158 157/157/157
f 158/158/158 159/159/159 160/160/160
f 163/163/163 162/162/162 161/161/161
f 162/162/162 163/163/163 164/164/164
f 167/167/167 166/166/166 165/165/165
f 166/166/166 167/167/167 168/168/168
