mtllib 36.WEP_posed.mtl
usemtl mat0
v -82 -8.999999999999998 9.000000000000002
v -123 0 0
v -82 9 -1.102182119232618e-15
v -82 -9.000000000000002 -8.999999999999998
v -82 9 -1.102182119232618e-15
v -123 0 0
v -123 0 0
v -82 -8.999999999999998 9.000000000000002
v -82 -9.000000000000002 -8.999999999999998
v 234 -45 -4.999999999999995
v 225 -86 1.0531962472667237e-14
v 271 -101 1.2368932671388267e-14
v 234 -45 4.000000000000005
v 308 -45 4.000000000000005
v 271 -101 1.2368932671388267e-14
v 271 -101 1.2368932671388267e-14
v 225 -86 1.0531962472667237e-14
v 234 -45 4.000000000000005
v 271 -101 1.2368932671388267e-14
v 317 -86 1.0531962472667237e-14
v 308 -45 -4.999999999999995
v 317 -86 1.0531962472667237e-14
v 352 -26 3.184081677783118e-15
v 308 -45 -4.999999999999995
v 308 -45 -4.999999999999995
v 234 -45 -4.999999999999995
v 271 -101 1.2368932671388267e-14
v 308 -45 -4.999999999999995
v 352 -26 3.184081677783118e-15
v 308 -45 4.000000000000005
v 234 -45 4.000000000000005
v 190 -26 3.184081677783118e-15
v 234 -45 -4.999999999999995
v 308 -45 4.000000000000005
v 352 -26 3.184081677783118e-15
v 317 -86 1.0531962472667237e-14
v 225 -86 1.0531962472667237e-14
v 190 -26 3.184081677783118e-15
v 234 -45 4.000000000000005
v 234 -45 -4.999999999999995
v 190 -26 3.184081677783118e-15
v 225 -86 1.0531962472667237e-14
v 308 -45 4.000000000000005
v 317 -86 1.0531962472667237e-14
v 271 -101 1.2368932671388267e-14
v 308 44 -5.000000000000005
v 352 26 -3.184081677783118e-15
v 317 86 -1.0531962472667237e-14
v 271 100 -1.2246467991473532e-14
v 234 44 -5.000000000000005
v 308 44 -5.000000000000005
v 308 44 3.9999999999999947
v 352 26 -3.184081677783118e-15
v 308 44 -5.000000000000005
v 234 44 -5.000000000000005
v 190 26 -3.184081677783118e-15
v 234 44 3.9999999999999947
v 317 86 -1.0531962472667237e-14
v 352 26 -3.184081677783118e-15
v 308 44 3.9999999999999947
v 234 44 3.9999999999999947
v 190 26 -3.184081677783118e-15
v 225 86 -1.0531962472667237e-14
v 225 86 -1.0531962472667237e-14
v 190 26 -3.184081677783118e-15
v 234 44 -5.000000000000005
v 271 100 -1.2246467991473532e-14
v 317 86 -1.0531962472667237e-14
v 308 44 3.9999999999999947
v 308 44 -5.000000000000005
v 317 86 -1.0531962472667237e-14
v 271 100 -1.2246467991473532e-14
v 271 100 -1.2246467991473532e-14
v 225 86 -1.0531962472667237e-14
v 234 44 -5.000000000000005
v 29 -6.000000000000001 -5.999999999999999
v 251 -6.000000000000001 -5.999999999999999
v 29 6 -7.347880794884119e-16
v 251 6 -7.347880794884119e-16
v 29 -5.999999999999999 6.000000000000001
v 251 -5.999999999999999 6.000000000000001
v 29 -6.000000000000001 -5.999999999999999
v 251 -6.000000000000001 -5.999999999999999
v 29 6 -7.347880794884119e-16
v 251 6 -7.347880794884119e-16
v 29 -5.999999999999999 6.000000000000001
v 251 -5.999999999999999 6.000000000000001
v -25 9 -1.102182119232618e-15
v 29 6 -7.347880794884119e-16
v -25 -8.999999999999998 9.000000000000002
v 29 -5.999999999999999 6.000000000000001
v -25 -9.000000000000002 -8.999999999999998
v 29 -6.000000000000001 -5.999999999999999
v -25 9 -1.102182119232618e-15
v 29 6 -7.347880794884119e-16
v -25 -8.999999999999998 9.000000000000002
v 29 -5.999999999999999 6.000000000000001
v -25 -9.000000000000002 -8.999999999999998
v 29 -6.000000000000001 -5.999999999999999
v -82 9 -1.102182119232618e-15
v -25 9 -1.102182119232618e-15
v -82 -8.999999999999998 9.000000000000002
v -25 -8.999999999999998 9.000000000000002
v -82 -9.000000000000002 -8.999999999999998
v -25 -9.000000000000002 -8.999999999999998
v -82 9 -1.102182119232618e-15
v -25 9 -1.102182119232618e-15
v -82 -8.999999999999998 9.000000000000002
v -25 -8.999999999999998 9.000000000000002
v -82 -9.000000000000002 -8.999999999999998
v -25 -9.000000000000002 -8.999999999999998
v 308 -45 4.000000000000005
v 292 -9 7.000000000000001
v 308 -45 -4.999999999999995
v 292 -9.000000000000002 -7.999999999999999
v 234 -45 -4.999999999999995
v 251 -9.000000000000002 -7.999999999999999
v 234 -45 4.000000000000005
v 251 -9 7.000000000000001
v 234 -45 4.000000000000005
v 251 -9 7.000000000000001
v 308 -45 4.000000000000005
v 292 -9 7.000000000000001
v 308 -45 -4.999999999999995
v 292 -9.000000000000002 -7.999999999999999
v 234 -45 -4.999999999999995
v 251 -9.000000000000002 -7.999999999999999
v 251 -9.000000000000002 -7.999999999999999
v 292 -9.000000000000002 -7.999999999999999
v 251 8.999999999999998 -8.000000000000002
v 292 8.999999999999998 -8.000000000000002
v 292 -9.000000000000002 -7.999999999999999
v 292 -9 7.000000000000001
v 292 8.999999999999998 -8.000000000000002
v 292 9 6.999999999999999
v 292 -9 7.000000000000001
v 251 -9 7.000000000000001
v 292 9 6.999999999999999
v 251 9 6.999999999999999
v 251 -9 7.000000000000001
v 251 -9.000000000000002 -7.999999999999999
v 251 9 6.999999999999999
v 251 8.999999999999998 -8.000000000000002
v 308 44 -5.000000000000005
v 292 8.999999999999998 -8.000000000000002
v 308 44 3.9999999999999947
v 292 9 6.999999999999999
v 234 44 3.9999999999999947
v 251 9 6.999999999999999
v 234 44 -5.000000000000005
v 251 8.999999999999998 -8.000000000000002
v 308 44 3.9999999999999947
v 292 9 6.999999999999999
v 234 44 3.9999999999999947
v 251 9 6.999999999999999
v 234 44 -5.000000000000005
v 251 8.999999999999998 -8.000000000000002
v 308 44 -5.000000000000005
v 292 8.999999999999998 -8.000000000000002
v 225 86 -1.0531962472667237e-14
v 271 100 -1.2246467991473532e-14
v 234 44 3.9999999999999947
v 308 44 3.9999999999999947
v 292 -5 6.123233995736766e-16
v 292 5 -6.123233995736766e-16
v 341 0 0
vt 0.890625 0.75
vt 0.984375 0.84375
vt 0.890625 0.9375
vt 0.890625 0.75
vt 0.890625 0.9375
vt 0.984375 0.84375
vt 0.984375 0.65625
vt 0.890625 0.75
vt 0.890625 0.5625
vt 0.3359375 0.3125
vt 0.359375 0.03125
vt 0.234375 0.03125
vt 0.3359375 0.3125
vt 0.1328125 0.3125
vt 0.234375 0.03125
vt 0.234375 0.03125
vt 0.359375 0.03125
vt 0.3359375 0.3125
vt 0.234375 0.03125
vt 0.109375 0.03125
vt 0.1328125 0.3125
vt 0.109375 0.03125
vt 0.0078125 0.3125
vt 0.1328125 0.3125
vt 0.1328125 0.3125
vt 0.3359375 0.3125
vt 0.234375 0.03125
vt 0.171875 0.71875
vt 0.1484375 0.4375
vt 0.125 0.71875
vt 0.125 0.71875
vt 0.1484375 0.4375
vt 0.171875 0.71875
vt 0.1328125 0.3125
vt 0.0078125 0.3125
vt 0.109375 0.03125
vt 0.359375 0.03125
vt 0.484375 0.3125
vt 0.3359375 0.3125
vt 0.3359375 0.3125
vt 0.484375 0.3125
vt 0.359375 0.03125
vt 0.1328125 0.3125
vt 0.109375 0.03125
vt 0.234375 0.03125
vt 0.296875 0.5625
vt 0.1875 0.5625
vt 0.2734375 0.9375
vt 0.3984375 0.9375
vt 0.5 0.5625
vt 0.296875 0.5625
vt 0.6640625 0.9375
vt 0.5625 0.84375
vt 0.6640625 0.75
vt 0.6640625 0.75
vt 0.5625 0.84375
vt 0.6640625 0.9375
vt 0.2734375 0.9375
vt 0.1875 0.5625
vt 0.296875 0.5625
vt 0.5 0.5625
vt 0.6328125 0.5625
vt 0.5234375 0.9375
vt 0.5234375 0.9375
vt 0.6328125 0.5625
vt 0.5 0.5625
vt 0.3984375 0.9375
vt 0.2734375 0.9375
vt 0.296875 0.5625
vt 0.296875 0.5625
vt 0.2734375 0.9375
vt 0.3984375 0.9375
vt 0.3984375 0.9375
vt 0.5234375 0.9375
vt 0.5 0.5625
vt 0.984375 0.28125
vt 0.5078125 0.28125
vt 0.984375 0.53125
vt 0.5078125 0.53125
vt 0.984375 0.28125
vt 0.5078125 0.28125
vt 0.984375 0.03125
vt 0.5078125 0.03125
vt 0.984375 0.53125
vt 0.5078125 0.53125
vt 0.984375 0.28125
vt 0.5078125 0.28125
vt 0.7734375 0.9375
vt 0.671875 0.9375
vt 0.7734375 0.75
vt 0.671875 0.75
vt 0.7734375 0.75
vt 0.671875 0.75
vt 0.7734375 0.9375
vt 0.671875 0.9375
vt 0.7734375 0.75
vt 0.671875 0.75
vt 0.7734375 0.5625
vt 0.671875 0.5625
vt 0.8828125 0.9375
vt 0.7734375 0.9375
vt 0.8828125 0.75
vt 0.7734375 0.75
vt 0.8828125 0.75
vt 0.7734375 0.75
vt 0.8828125 0.9375
vt 0.7734375 0.9375
vt 0.8828125 0.75
vt 0.7734375 0.75
vt 0.8828125 0.5625
vt 0.7734375 0.5625
vt 0.109375 0.5625
vt 0.109375 0.9375
vt 0.0625 0.5625
vt 0.0625 0.9375
vt 0.0546875 0.5625
vt 0.0546875 0.9375
vt 0.0078125 0.5625
vt 0.0078125 0.9375
vt 0.3359375 0.3125
vt 0.2890625 0.53125
vt 0.1328125 0.3125
vt 0.1796875 0.53125
vt 0.1328125 0.3125
vt 0.1796875 0.53125
vt 0.3359375 0.3125
vt 0.2890625 0.53125
vt 0.1171875 0.34375
vt 0.0078125 0.34375
vt 0.1171875 0.53125
vt 0.0078125 0.53125
vt 0.171875 0.75
vt 0.21875 0.75
vt 0.171875 0.9375
vt 0.21875 0.9375
vt 0.0078125 0.34375
vt 0.1171875 0.34375
vt 0.0078125 0.53125
vt 0.1171875 0.53125
vt 0.1171875 0.75
vt 0.1640625 0.75
vt 0.1171875 0.9375
vt 0.1640625 0.9375
vt 0.0625 0.9375
vt 0.0625 0.5625
vt 0.109375 0.9375
vt 0.109375 0.5625
vt 0.0078125 0.9375
vt 0.0078125 0.5625
vt 0.0546875 0.9375
vt 0.0546875 0.5625
vt 0.296875 0.5625
vt 0.34375 0.34375
vt 0.5 0.5625
vt 0.453125 0.34375
vt 0.5 0.5625
vt 0.453125 0.34375
vt 0.296875 0.5625
vt 0.34375 0.34375
vt 0.5234375 0.9375
vt 0.3984375 0.9375
vt 0.5 0.5625
vt 0.296875 0.5625
vt 0.5 0.03125
vt 0.5 0.21875
vt 0.421875 0.125
vn -0.09769919733805209 0.4450741212066819 0.8901482424133635
vn -0.09769919733805209 0.4450741212066819 0.8901482424133635
vn -0.09769919733805209 0.4450741212066819 0.8901482424133635
vn -0.09769919733805212 0.4450741212066817 -0.8901482424133637
vn -0.09769919733805212 0.4450741212066817 -0.8901482424133637
vn -0.09769919733805212 0.4450741212066817 -0.8901482424133637
vn -0.2144072927621968 -0.9767443436285596 1.1961668340099977e-16
vn -0.2144072927621968 -0.9767443436285596 1.1961668340099977e-16
vn -0.2144072927621968 -0.9767443436285596 1.1961668340099977e-16
vn -0.036847293547455716 -0.11299836687886433 -0.9929117010293197
vn -0.036847293547455716 -0.11299836687886433 -0.9929117010293197
vn -0.036847293547455716 -0.11299836687886433 -0.9929117010293197
vn 0 -0.07124704892894375 0.9974586999063754
vn 0 -0.07124704892894375 0.9974586999063754
vn 0 -0.07124704892894375 0.9974586999063754
vn -0.029553076434949886 -0.09062942918510641 0.9954460920807372
vn -0.029553076434949886 -0.09062942918510641 0.9954460920807372
vn -0.029553076434949886 -0.09062942918510641 0.9954460920807372
vn 0.036847293547455716 -0.11299836687886433 -0.9929117010293197
vn 0.036847293547455716 -0.11299836687886433 -0.9929117010293197
vn 0.036847293547455716 -0.11299836687886433 -0.9929117010293197
vn 0.14960314282964923 -0.0872685012257256 -0.9848873582036208
vn 0.14960314282964923 -0.0872685012257256 -0.9848873582036208
vn 0.14960314282964923 -0.0872685012257256 -0.9848873582036208
vn 0 -0.08893193903045632 -0.9960377052201805
vn 0 -0.08893193903045632 -0.9960377052201805
vn 0 -0.08893193903045632 -0.9960377052201805
vn -0.39643601629971864 0.9180623535361906 -1.1243021226757815e-16
vn -0.39643601629971864 0.9180623535361906 -1.1243021226757815e-16
vn -0.39643601629971864 0.9180623535361906 -1.1243021226757815e-16
vn 0.39643601629971864 0.9180623535361906 -1.1243021226757815e-16
vn 0.39643601629971864 0.9180623535361906 -1.1243021226757815e-16
vn 0.39643601629971864 0.9180623535361906 -1.1243021226757815e-16
vn 0.12033401194467092 -0.07019483905929451 0.9902486607608916
vn 0.12033401194467092 -0.07019483905929451 0.9902486607608916
vn 0.12033401194467092 -0.07019483905929451 0.9902486607608916
vn -0.12033401194467092 -0.07019483905929451 0.9902486607608916
vn -0.12033401194467092 -0.07019483905929451 0.9902486607608916
vn -0.12033401194467092 -0.07019483905929451 0.9902486607608916
vn -0.14960314282964923 -0.0872685012257256 -0.9848873582036208
vn -0.14960314282964923 -0.0872685012257256 -0.9848873582036208
vn -0.14960314282964923 -0.0872685012257256 -0.9848873582036208
vn 0.029553076434949886 -0.09062942918510641 0.9954460920807372
vn 0.029553076434949886 -0.09062942918510641 0.9954460920807372
vn 0.029553076434949886 -0.09062942918510641 0.9954460920807372
vn 0.1470742850797206 0.08579333296317021 -0.9853977159945925
vn 0.1470742850797206 0.08579333296317021 -0.9853977159945925
vn 0.1470742850797206 0.08579333296317021 -0.9853977159945925
vn 0 0.08893193903045607 -0.9960377052201805
vn 0 0.08893193903045607 -0.9960377052201805
vn 0 0.08893193903045607 -0.9960377052201805
vn -0.37863284804139297 -0.9255469552562222 1.133468116215111e-16
vn -0.37863284804139297 -0.9255469552562222 1.133468116215111e-16
vn -0.37863284804139297 -0.9255469552562222 1.133468116215111e-16
vn 0.37863284804139297 -0.9255469552562222 1.133468116215111e-16
vn 0.37863284804139297 -0.9255469552562222 1.133468116215111e-16
vn 0.37863284804139297 -0.9255469552562222 1.133468116215111e-16
vn 0.11827827277287789 0.06899566222192081 0.990580561481207
vn 0.11827827277287789 0.06899566222192081 0.990580561481207
vn 0.11827827277287789 0.06899566222192081 0.990580561481207
vn -0.11827827277287789 0.06899566222192081 0.990580561481207
vn -0.11827827277287789 0.06899566222192081 0.990580561481207
vn -0.11827827277287789 0.06899566222192081 0.990580561481207
vn -0.1470742850797206 0.08579333296317021 -0.9853977159945925
vn -0.1470742850797206 0.08579333296317021 -0.9853977159945925
vn -0.1470742850797206 0.08579333296317021 -0.9853977159945925
vn 0.02709282516732617 0.08901928216045894 0.9956613612208166
vn 0.02709282516732617 0.08901928216045894 0.9956613612208166
vn 0.02709282516732617 0.08901928216045894 0.9956613612208166
vn 0.03378386471478581 0.11100412319472006 -0.9932455563045346
vn 0.03378386471478581 0.11100412319472006 -0.9932455563045346
vn 0.03378386471478581 0.11100412319472006 -0.9932455563045346
vn -0.03378386471478581 0.11100412319472006 -0.9932455563045346
vn -0.03378386471478581 0.11100412319472006 -0.9932455563045346
vn -0.03378386471478581 0.11100412319472006 -0.9932455563045346
vn 0 0.4472135954999578 -0.8944271909999159
vn 0 0.4472135954999578 -0.8944271909999159
vn 0 0.4472135954999578 -0.8944271909999159
vn 0 0.4472135954999578 -0.8944271909999159
vn 0 -1 1.2246467991473532e-16
vn 0 -1 1.2246467991473532e-16
vn 0 -1 1.2246467991473532e-16
vn 0 -1 1.2246467991473532e-16
vn 0 0.44721359549995804 0.8944271909999159
vn 0 0.44721359549995804 0.8944271909999159
vn 0 0.44721359549995804 0.8944271909999159
vn 0 0.44721359549995804 0.8944271909999159
vn 0.02483753461310459 0.44707563048646326 0.8941512609729263
vn 0.02483753461310459 0.44707563048646326 0.8941512609729263
vn 0.02483753461310459 0.44707563048646326 0.8941512609729263
vn 0.02483753461310459 0.44707563048646326 0.8941512609729263
vn 0.024837534613104596 0.44707563048646315 -0.8941512609729265
vn 0.024837534613104596 0.44707563048646315 -0.8941512609729265
vn 0.024837534613104596 0.44707563048646315 -0.8941512609729265
vn 0.024837534613104596 0.44707563048646315 -0.8941512609729265
vn 0.05547001962252291 -0.9984603532054124 1.222761275628544e-16
vn 0.05547001962252291 -0.9984603532054124 1.222761275628544e-16
vn 0.05547001962252291 -0.9984603532054124 1.222761275628544e-16
vn 0.05547001962252291 -0.9984603532054124 1.222761275628544e-16
vn 0 0.44721359549995804 0.8944271909999159
vn 0 0.44721359549995804 0.8944271909999159
vn 0 0.44721359549995804 0.8944271909999159
vn 0 0.44721359549995804 0.8944271909999159
vn 0 0.4472135954999578 -0.8944271909999159
vn 0 0.4472135954999578 -0.8944271909999159
vn 0 0.4472135954999578 -0.8944271909999159
vn 0 0.4472135954999578 -0.8944271909999159
vn 0 -1 1.2246467991473532e-16
vn 0 -1 1.2246467991473532e-16
vn 0 -1 1.2246467991473532e-16
vn 0 -1 1.2246467991473532e-16
vn 0.9138115461623337 0.4061384715837754 -4.973761792356688e-17
vn 0.9138115461623337 0.4061384715837754 -4.973761792356688e-17
vn 0.9138115461623337 0.4061384715837754 -4.973761792356688e-17
vn 0.9138115461623337 0.4061384715837754 -4.973761792356688e-17
vn -0.904248648663869 0.42700630134643996 -5.2293190015966785e-17
vn -0.904248648663869 0.42700630134643996 -5.2293190015966785e-17
vn -0.904248648663869 0.42700630134643996 -5.2293190015966785e-17
vn -0.904248648663869 0.42700630134643996 -5.2293190015966785e-17
vn 0 -0.08304548478653817 0.9965457578338132
vn 0 -0.08304548478653817 0.9965457578338132
vn 0 -0.08304548478653817 0.9965457578338132
vn 0 -0.08304548478653817 0.9965457578338132
vn 0 -0.08304548478653842 -0.9965457578338132
vn 0 -0.08304548478653842 -0.9965457578338132
vn 0 -0.08304548478653842 -0.9965457578338132
vn 0 -0.08304548478653842 -0.9965457578338132
vn 0 -1.2246467991473532e-16 -1
vn 0 -1.2246467991473532e-16 -1
vn 0 -1.2246467991473532e-16 -1
vn 0 -1.2246467991473532e-16 -1
vn 1 0 0
vn 1 0 0
vn 1 0 0
vn 1 0 0
vn 0 1.2246467991473532e-16 1
vn 0 1.2246467991473532e-16 1
vn 0 1.2246467991473532e-16 1
vn 0 1.2246467991473532e-16 1
vn -1 0 0
vn -1 0 0
vn -1 0 0
vn -1 0 0
vn 0.9094744739759516 -0.41575976378933815 5.091588639388726e-17
vn 0.9094744739759516 -0.41575976378933815 5.091588639388726e-17
vn 0.9094744739759516 -0.41575976378933815 5.091588639388726e-17
vn 0.9094744739759516 -0.41575976378933815 5.091588639388726e-17
vn -0.8995081659379977 -0.4369039475798536 5.3505302093851075e-17
vn -0.8995081659379977 -0.4369039475798536 5.3505302093851075e-17
vn -0.8995081659379977 -0.4369039475798536 5.3505302093851075e-17
vn -0.8995081659379977 -0.4369039475798536 5.3505302093851075e-17
vn 0 0.08540113986718775 0.9963466491685437
vn 0 0.08540113986718775 0.9963466491685437
vn 0 0.08540113986718775 0.9963466491685437
vn 0 0.08540113986718775 0.9963466491685437
vn 0 0.0854011398671875 -0.9963466491685437
vn 0 0.0854011398671875 -0.9963466491685437
vn 0 0.0854011398671875 -0.9963466491685437
vn 0 0.0854011398671875 -0.9963466491685437
vn -0.02709282516732617 0.08901928216045894 0.9956613612208166
vn -0.009002058756856227 0.07716050735548666 0.9969780434105769
vn -0.009002058756856227 0.07716050735548666 0.9969780434105769
vn 0 0.071247048928944 0.9974586999063754
vn 0 0 0
vn 0 0 0
vn 0 0 0
f 3/3/3 2/2/2 1/1/1
f 6/6/6 5/5/5 4/4/4
f 9/9/9 8/8/8 7/7/7
f 12/12/12 11/11/11 10/10/10
f 15/15/15 14/14/14 13/13/13
f 18/18/18 17/17/17 16/16/16
f 21/21/21 20/20/20 19/19/19
f 24/24/24 23/23/23 22/22/22
f 27/27/27 26/26/26 25/25/25
f 30/30/30 29/29/29 28/28/28
f 33/33/33 32/32/32 31/31/31
f 36/36/36 35/35/35 34/34/34
f 39/39/39 38/38/38 37/37/37
f 42/42/42 41/41/41 40/40/40
f 45/45/45 44/44/44 43/43/43
f 48/48/48 47/47/47 46/46/46
f 51/51/51 50/50/50 49/49/49
f 54/54/54 53/53/53 52/52/52
f 57/57/57 56/56/56 55/55/55
f 60/60/60 59/59/59 58/58/58
f 63/63/63 62/62/62 61/61/61
f 66/66/66 65/65/65 64/64/64
f 69/69/69 68/68/68 67/67/67
f 72/72/72 71/71/71 70/70/70
f 75/75/75 74/74/74 73/73/73
f 78/78/78 77/77/77 76/76/76
f 77/77/77 78/78/78 79/79/79
f 82/82/82 81/81/81 80/80/80
f 81/81/81 82/82/82 83/83/83
f 86/86/86 85/85/85 84/84/84
f 85/85/85 86/86/86 87/87/87
f 90/90/90 89/89/89 88/88/88
f 89/89/89 90/90/90 91/91/91
f 94/94/94 93/93/93 92/92/92
f 93/93/93 94/94/94 95/95/95
f 98/98/98 97/97/97 96/96/96
f 97/97/97 98/98/98 99/99/99
f 102/102/102 101/101/101 100/100/100
f 101/101/101 102/102/102 103/103/103
f 106/106/106 105/105/105 104/104/104
f 105/105/105 106/106/106 107/107/107
f 110/110/110 109/109/109 108/108/108
f 109/109/109 110/110/110 111/111/111
f 114/114/114 113/113/113 112/112/112
f 113/113/113 114/114/114 115/115/115
f 118/118/118 117/117/117 116/116/116
f 117/117/117 118/118/118 119/119/119
f 122/122/122 121/121/121 120/120/120
f 121/121/121 122/122/122 123/123/123
f 126/126/126 125/125/125 124/124/124
f 125/125/125 126/126/126 127/127/127
f 130/130/130 129/129/129 128/128/128
f 129/129/129 130/130/130 131/131/131
f 134/134/134 133/133/133 132/132/132
f 133/133/133 134/134/134 135/135/135
f 138/138/138 137/137/137 136/136/136
f 137/137/137 138/138/138 139/139/139
f 142/142/142 141/141/141 140/140/140
f 141/141/141 142/142/142 143/143/143
f 146/146/146 145/145/145 144/144/144
f 145/145/145 146/146/146 147/147/147
f 150/150/150 149/149/149 148/148/148
f 149/149/149 150/150/150 151/151/151
f 154/154/154 153/153/153 152/152/152
f 153/153/153 154/154/154 155/155/155
f 158/158/158 157/157/157 156/156/156
f 157/157/157 158/158/158 159/159/159
f 162/162/162 161/161/161 160/160/160
f 161/161/161 162/162/162 163/163/163
f 166/166/166 165/165/165 164/164/164
f 164/164/164 165/165/165 166/166/166
